<svg id="Groupe_352" data-name="Groupe 352" xmlns="http://www.w3.org/2000/svg" width="16.189" height="16.106"
  viewBox="0 0 16.189 16.106">
  <path id="Tracé_373" data-name="Tracé 373"
    d="M14.239,0H1.957A1.956,1.956,0,0,0,0,1.957V13.315a2.8,2.8,0,0,0,2.791,2.791H13.4a2.8,2.8,0,0,0,2.791-2.791V1.957A1.946,1.946,0,0,0,14.239,0Zm-.248,1.378a.763.763,0,0,1,.82.689V3.7H1.378V2.068a.768.768,0,0,1,.82-.689ZM3.2,14.728a1.723,1.723,0,0,1-1.819-1.592V5.079H14.818V9.814a1.087,1.087,0,0,1-.8.992l-2.715.9-.31,2.088a1.192,1.192,0,0,1-1.234.93Zm10.207,0H12.116A2.41,2.41,0,0,0,12.364,14l.186-1.247,1.909-.634a3.4,3.4,0,0,0,.365-.152v1.351A1.425,1.425,0,0,1,13.4,14.728Z"
     />
  <path id="Tracé_374" data-name="Tracé 374"
    d="M6.471,9.53H5.189a.7.7,0,0,0-.572.3.723.723,0,0,0-.117.379v1.275a.682.682,0,0,0,.682.682H6.457a.7.7,0,0,0,.524-.241.666.666,0,0,0,.159-.441V10.212a.661.661,0,0,0-.193-.476A.637.637,0,0,0,6.471,9.53Z"
    transform="translate(-1.399 -2.962)"  />
  <path id="Tracé_375" data-name="Tracé 375"
    d="M6.471,14.47H5.189a.689.689,0,0,0-.689.682v1.275a.682.682,0,0,0,.682.682H6.457a.682.682,0,0,0,.682-.682V15.152a.69.69,0,0,0-.193-.476A.637.637,0,0,0,6.471,14.47Z"
    transform="translate(-1.399 -4.497)"  />
  <path id="Tracé_376" data-name="Tracé 376"
    d="M11.464,9.53H10.189a.679.679,0,0,0-.434.152.691.691,0,0,0-.255.531v1.275a.682.682,0,0,0,.682.682h1.275A.679.679,0,0,0,12,11.9a.664.664,0,0,0,.138-.414V10.212a.678.678,0,0,0-.193-.476A.639.639,0,0,0,11.464,9.53Z"
    transform="translate(-2.953 -2.962)"  />
</svg>