<svg xmlns="http://www.w3.org/2000/svg" width="18.907" height="16.108" viewBox="0 0 18.907 16.108">
  <g id="Groupe_350" data-name="Groupe 350" transform="translate(-227.597 -1153.078)">
    <path id="Tracé_365" data-name="Tracé 365"
      d="M245.929,1162.758a1.944,1.944,0,0,0-1.384-.574h-.994v-4.2a2.709,2.709,0,0,0-1.386-2.366l-4.026-2.256a2.263,2.263,0,0,0-2.178,0l-4.026,2.256a2.713,2.713,0,0,0-1.386,2.366v4.2h-.993a1.959,1.959,0,0,0-1.958,1.958v5.043H246.5v-5.043A1.942,1.942,0,0,0,245.929,1162.758Zm-15.381,5.427H228.6v-4.043a.959.959,0,0,1,.958-.958h.993Zm5.143,0v-3.223a.727.727,0,0,1,.729-.728h1.26a.729.729,0,0,1,.729.728v3.223Zm6.859,0h-3.142v-3.223a1.729,1.729,0,0,0-1.729-1.728h-1.26a1.728,1.728,0,0,0-1.729,1.728v3.223h-3.143v-10.206a1.713,1.713,0,0,1,.875-1.494l4.026-2.256a1.243,1.243,0,0,1,1.2,0l4.025,2.256a1.709,1.709,0,0,1,.875,1.494v10.206Zm2.953,0h-1.952v-5h.994a.959.959,0,0,1,.958.958Z"
      transform="translate(0 0)"  />
    <path id="Tracé_366" data-name="Tracé 366"
      d="M240.6,1157.062a2.358,2.358,0,1,0,2.359,2.358A2.361,2.361,0,0,0,240.6,1157.062Zm0,3.717a1.358,1.358,0,1,1,1.359-1.358A1.36,1.36,0,0,1,240.6,1160.779Z"
      transform="translate(-3.545 -1.328)"  />
  </g>
</svg>