<svg xmlns="http://www.w3.org/2000/svg" width="16" height="16.108" viewBox="0 0 16 16.108">
  <g id="Groupe_272" data-name="Groupe 272" transform="translate(-20 -195)">
    <path id="Tracé_44" data-name="Tracé 44" d="M300.131,222.834v-7.973a.964.964,0,0,0-.964-.964H285.833a.964.964,0,0,0-.964.964v7.973H284.5v.231h16v-.231Zm-13-5.9h7.331a.184.184,0,0,1,0,.369h-7.331a.184.184,0,1,1,0-.369Zm0,1.874h4.427a.184.184,0,1,1,0,.369h-4.427a.184.184,0,1,1,0-.369Z" transform="translate(-264.5 -18.897)"/>
    <path id="Tracé_45" data-name="Tracé 45" d="M291.24,242.25h-4.334a1.406,1.406,0,0,0-1.406,1.407.852.852,0,0,0,.668.831v3.227a.184.184,0,0,0,.369,0V246.02h5.018v1.695a.184.184,0,1,0,.369,0V244.5a.851.851,0,0,0,.723-.84A1.406,1.406,0,0,0,291.24,242.25Zm-4.7,3.4v-1.142h5.018v1.142Z" transform="translate(-265.131 -36.791)"/>
    <path id="Tracé_46" data-name="Tracé 46" d="M313.24,242.25h-4.334a1.406,1.406,0,0,0-1.406,1.407.852.852,0,0,0,.668.831v3.227a.184.184,0,0,0,.369,0V246.02h5.018v1.695a.184.184,0,1,0,.369,0V244.5a.851.851,0,0,0,.723-.84A1.406,1.406,0,0,0,313.24,242.25Zm-4.7,3.4v-1.142h5.018v1.142Z" transform="translate(-279.016 -36.791)"/>
  </g>
</svg>
