<?xml version="1.0" encoding="utf-8"?>
<!-- Generator: Adobe Illustrator 24.0.1, SVG Export Plug-In . SVG Version: 6.00 Build 0)  -->
<svg version="1.1" id="Calque_1" xmlns="http://www.w3.org/2000/svg" xmlns:xlink="http://www.w3.org/1999/xlink" x="0px" y="0px"
	 viewBox="0 0 1920 1920" style="enable-background:new 0 0 1920 1920;" xml:space="preserve">
<style type="text/css">
	.st0{display:none;fill:#08102B;}
	.st1{fill:#FFFFFF;}
</style>
<rect class="st0" width="1920" height="1920"/>
<g>
	<path class="st1" d="M959.99,390.9c40,0,77.41,19.72,100.03,52.69l307.09,447.81c28.55,41.67,28.55,95.52,0.02,137.2
		l-307.12,447.81c-22.62,32.97-60.03,52.69-100.03,52.69c-40,0-77.41-19.72-100.03-52.69L552.89,1028.6
		c-28.55-41.67-28.55-95.52-0.02-137.2l307.09-447.81C882.58,410.62,919.99,390.9,959.99,390.9z M984.66,495.25
		c-8.03-11.69-19.92-12.98-24.67-12.98s-16.64,1.29-24.67,12.98L628.27,943.03c-7,10.21-7,23.68,0,33.9l0,0
		c14.57,21.25,36.43,35.07,60.28,39.91c18.4,3.73,37.98,2.11,56.31-5.57l204.38-85.66c13.22-5.54,26.79-2.39,36.2,5.64
		c9.42,8.02,14.68,20.92,11.3,34.85l-82.86,341.97c-5.54,22.84-5.4,46.41,0.04,68.76c4.13,16.96,11.31,33.21,21.39,47.92h0
		c8.03,11.69,19.92,12.98,24.67,12.98s16.64-1.29,24.67-12.98l307.09-447.81c3.5-5.1,5.24-11.01,5.24-16.91
		c0-5.91-1.75-11.82-5.24-16.92L984.66,495.25z"/>
</g>
</svg>
