<?xml version="1.0" encoding="UTF-8"?>
<svg xmlns="http://www.w3.org/2000/svg" xmlns:xlink="http://www.w3.org/1999/xlink" width="100pt" height="100pt" viewBox="0 0 100 100" version="1.1">
<g id="surface1">
<path style=" stroke:none;fill-rule:nonzero;fill:rgb(21.568627%,38.431373%,96.470588%);fill-opacity:1;" d="M 20.171875 44.09375 C 20.585938 44.09375 20.976562 44.300781 21.210938 44.640625 L 24.394531 49.289062 C 24.691406 49.722656 24.691406 50.28125 24.394531 50.710938 L 21.210938 55.359375 C 20.972656 55.699219 20.585938 55.90625 20.171875 55.90625 C 19.757812 55.90625 19.367188 55.699219 19.132812 55.359375 L 15.945312 50.710938 C 15.652344 50.28125 15.652344 49.722656 15.945312 49.289062 L 19.132812 44.640625 C 19.367188 44.300781 19.757812 44.09375 20.171875 44.09375 Z M 20.425781 45.175781 C 20.34375 45.054688 20.222656 45.042969 20.171875 45.042969 C 20.121094 45.042969 20 45.054688 19.914062 45.175781 L 16.730469 49.824219 C 16.65625 49.929688 16.65625 50.070312 16.730469 50.175781 C 16.878906 50.394531 17.105469 50.539062 17.355469 50.589844 C 17.546875 50.628906 17.75 50.613281 17.9375 50.53125 L 20.058594 49.644531 C 20.195312 49.585938 20.339844 49.617188 20.433594 49.699219 C 20.535156 49.785156 20.585938 49.917969 20.550781 50.0625 L 19.691406 53.609375 C 19.636719 53.847656 19.636719 54.09375 19.691406 54.324219 C 19.734375 54.5 19.808594 54.667969 19.914062 54.820312 C 20 54.941406 20.121094 54.957031 20.171875 54.957031 C 20.222656 54.957031 20.34375 54.941406 20.425781 54.820312 L 23.613281 50.175781 C 23.652344 50.121094 23.667969 50.0625 23.667969 50 C 23.667969 49.9375 23.648438 49.878906 23.613281 49.824219 Z M 20.425781 45.175781 "/>
<path style=" stroke:none;fill-rule:nonzero;fill:rgb(21.568627%,38.431373%,96.470588%);fill-opacity:1;" d="M 30.523438 47.867188 C 30.675781 47.695312 30.863281 47.5625 31.078125 47.472656 C 31.292969 47.378906 31.53125 47.332031 31.792969 47.332031 C 31.945312 47.332031 32.074219 47.34375 32.1875 47.367188 C 32.300781 47.390625 32.398438 47.417969 32.480469 47.449219 C 32.566406 47.484375 32.636719 47.519531 32.699219 47.558594 C 32.761719 47.59375 32.816406 47.628906 32.867188 47.664062 C 32.917969 47.695312 32.964844 47.722656 33.011719 47.746094 C 33.058594 47.769531 33.105469 47.78125 33.15625 47.78125 C 33.234375 47.78125 33.292969 47.765625 33.335938 47.730469 C 33.378906 47.699219 33.414062 47.660156 33.445312 47.621094 L 33.933594 46.972656 C 33.816406 46.847656 33.683594 46.738281 33.53125 46.636719 C 33.382812 46.535156 33.214844 46.449219 33.039062 46.378906 C 32.859375 46.304688 32.667969 46.246094 32.460938 46.207031 C 32.253906 46.164062 32.035156 46.144531 31.800781 46.144531 C 31.324219 46.144531 30.882812 46.222656 30.484375 46.378906 C 30.089844 46.535156 29.746094 46.753906 29.460938 47.035156 C 29.175781 47.316406 28.953125 47.652344 28.792969 48.039062 C 28.636719 48.425781 28.554688 48.851562 28.554688 49.316406 C 28.554688 49.769531 28.625 50.191406 28.765625 50.578125 C 28.90625 50.964844 29.105469 51.300781 29.363281 51.582031 C 29.625 51.867188 29.941406 52.085938 30.3125 52.246094 C 30.6875 52.40625 31.109375 52.488281 31.582031 52.488281 C 32.09375 52.488281 32.539062 52.40625 32.917969 52.238281 C 33.292969 52.074219 33.605469 51.828125 33.855469 51.5 L 33.285156 50.898438 C 33.253906 50.867188 33.222656 50.847656 33.1875 50.832031 C 33.152344 50.820312 33.117188 50.8125 33.085938 50.8125 C 33.042969 50.8125 33 50.824219 32.960938 50.84375 C 32.921875 50.859375 32.886719 50.882812 32.851562 50.914062 C 32.765625 50.988281 32.679688 51.046875 32.597656 51.097656 C 32.511719 51.148438 32.425781 51.1875 32.332031 51.21875 C 32.242188 51.25 32.140625 51.273438 32.03125 51.285156 C 31.925781 51.296875 31.804688 51.304688 31.675781 51.304688 C 31.449219 51.304688 31.234375 51.261719 31.035156 51.171875 C 30.835938 51.082031 30.664062 50.957031 30.515625 50.785156 C 30.367188 50.617188 30.246094 50.410156 30.160156 50.164062 C 30.074219 49.914062 30.03125 49.632812 30.03125 49.316406 C 30.03125 49.011719 30.074219 48.738281 30.160156 48.492188 C 30.246094 48.246094 30.367188 48.039062 30.523438 47.867188 Z M 30.523438 47.867188 "/>
<path style=" stroke:none;fill-rule:nonzero;fill:rgb(21.568627%,38.431373%,96.470588%);fill-opacity:1;" d="M 34.554688 46.042969 L 35.875 46.042969 L 35.875 52.417969 L 34.554688 52.417969 Z M 34.554688 46.042969 "/>
<path style=" stroke:none;fill-rule:nonzero;fill:rgb(21.568627%,38.431373%,96.470588%);fill-opacity:1;" d="M 40.132812 48.410156 C 39.984375 48.253906 39.800781 48.132812 39.585938 48.046875 C 39.371094 47.960938 39.132812 47.917969 38.863281 47.917969 C 38.492188 47.917969 38.144531 47.972656 37.820312 48.089844 C 37.492188 48.203125 37.199219 48.378906 36.929688 48.613281 L 37.167969 49.027344 C 37.207031 49.09375 37.257812 49.148438 37.320312 49.191406 C 37.382812 49.238281 37.460938 49.257812 37.550781 49.257812 C 37.65625 49.257812 37.742188 49.242188 37.816406 49.207031 C 37.890625 49.171875 37.964844 49.132812 38.042969 49.09375 C 38.121094 49.050781 38.210938 49.011719 38.308594 48.976562 C 38.410156 48.941406 38.539062 48.925781 38.695312 48.925781 C 38.890625 48.925781 39.039062 48.984375 39.148438 49.101562 C 39.253906 49.214844 39.308594 49.40625 39.308594 49.664062 L 39.308594 49.855469 C 38.800781 49.855469 38.382812 49.898438 38.050781 49.992188 C 37.71875 50.082031 37.453125 50.195312 37.257812 50.332031 C 37.0625 50.46875 36.925781 50.617188 36.84375 50.78125 C 36.765625 50.949219 36.726562 51.109375 36.726562 51.265625 C 36.726562 51.464844 36.757812 51.640625 36.820312 51.792969 C 36.882812 51.945312 36.972656 52.074219 37.085938 52.175781 C 37.199219 52.277344 37.339844 52.355469 37.503906 52.410156 C 37.667969 52.460938 37.851562 52.488281 38.054688 52.488281 C 38.207031 52.488281 38.34375 52.476562 38.464844 52.453125 C 38.589844 52.425781 38.707031 52.390625 38.816406 52.339844 C 38.925781 52.292969 39.03125 52.230469 39.132812 52.160156 C 39.234375 52.089844 39.339844 52.007812 39.453125 51.910156 L 39.546875 52.15625 C 39.589844 52.261719 39.640625 52.332031 39.707031 52.367188 C 39.769531 52.402344 39.863281 52.417969 39.988281 52.417969 L 40.59375 52.417969 L 40.59375 49.660156 C 40.59375 49.40625 40.554688 49.171875 40.472656 48.960938 C 40.394531 48.746094 40.28125 48.5625 40.132812 48.410156 Z M 39.308594 51.234375 C 39.175781 51.367188 39.046875 51.464844 38.921875 51.523438 C 38.792969 51.585938 38.644531 51.613281 38.472656 51.613281 C 38.3125 51.613281 38.195312 51.582031 38.109375 51.523438 C 38.027344 51.460938 37.988281 51.355469 37.988281 51.203125 C 37.988281 51.125 38.007812 51.054688 38.042969 50.988281 C 38.082031 50.921875 38.152344 50.863281 38.25 50.8125 C 38.351562 50.757812 38.484375 50.714844 38.65625 50.683594 C 38.828125 50.648438 39.042969 50.628906 39.308594 50.628906 Z M 39.308594 51.234375 "/>
<path style=" stroke:none;fill-rule:nonzero;fill:rgb(21.568627%,38.431373%,96.470588%);fill-opacity:1;" d="M 44.238281 50.199219 C 44.140625 50.109375 44.03125 50.035156 43.910156 49.972656 C 43.785156 49.910156 43.660156 49.855469 43.535156 49.8125 C 43.40625 49.765625 43.28125 49.726562 43.160156 49.6875 C 43.035156 49.652344 42.925781 49.613281 42.832031 49.570312 C 42.734375 49.53125 42.65625 49.484375 42.597656 49.429688 C 42.539062 49.375 42.511719 49.308594 42.511719 49.226562 C 42.511719 49.109375 42.558594 49.023438 42.644531 48.957031 C 42.734375 48.894531 42.863281 48.863281 43.03125 48.863281 C 43.148438 48.863281 43.25 48.875 43.34375 48.902344 C 43.433594 48.929688 43.515625 48.960938 43.589844 48.988281 C 43.660156 49.019531 43.726562 49.050781 43.789062 49.078125 C 43.851562 49.105469 43.914062 49.117188 43.976562 49.117188 C 44.035156 49.117188 44.085938 49.105469 44.125 49.082031 C 44.164062 49.0625 44.199219 49.023438 44.234375 48.96875 L 44.53125 48.503906 C 44.449219 48.421875 44.351562 48.347656 44.246094 48.277344 C 44.136719 48.207031 44.019531 48.148438 43.886719 48.09375 C 43.757812 48.042969 43.617188 48.003906 43.46875 47.976562 C 43.320312 47.949219 43.164062 47.933594 43.007812 47.933594 C 42.714844 47.933594 42.457031 47.972656 42.238281 48.046875 C 42.019531 48.121094 41.839844 48.222656 41.695312 48.351562 C 41.550781 48.480469 41.441406 48.628906 41.367188 48.796875 C 41.296875 48.964844 41.261719 49.144531 41.261719 49.332031 C 41.261719 49.53125 41.289062 49.703125 41.347656 49.847656 C 41.410156 49.988281 41.488281 50.109375 41.582031 50.207031 C 41.679688 50.304688 41.789062 50.386719 41.914062 50.449219 C 42.035156 50.511719 42.164062 50.566406 42.289062 50.613281 C 42.417969 50.660156 42.542969 50.699219 42.667969 50.734375 C 42.792969 50.769531 42.902344 50.808594 42.996094 50.851562 C 43.09375 50.890625 43.171875 50.941406 43.230469 50.996094 C 43.292969 51.054688 43.320312 51.125 43.320312 51.214844 C 43.320312 51.261719 43.3125 51.308594 43.292969 51.355469 C 43.273438 51.398438 43.242188 51.441406 43.199219 51.476562 C 43.15625 51.515625 43.097656 51.542969 43.027344 51.566406 C 42.957031 51.585938 42.871094 51.597656 42.769531 51.597656 C 42.621094 51.597656 42.503906 51.582031 42.40625 51.546875 C 42.3125 51.511719 42.230469 51.476562 42.160156 51.433594 C 42.085938 51.394531 42.019531 51.359375 41.960938 51.324219 C 41.898438 51.289062 41.832031 51.273438 41.753906 51.273438 C 41.671875 51.273438 41.605469 51.289062 41.554688 51.320312 C 41.503906 51.355469 41.457031 51.398438 41.421875 51.457031 L 41.113281 51.941406 C 41.199219 52.019531 41.300781 52.089844 41.421875 52.15625 C 41.539062 52.222656 41.671875 52.28125 41.8125 52.328125 C 41.953125 52.378906 42.097656 52.414062 42.246094 52.445312 C 42.398438 52.472656 42.550781 52.488281 42.699219 52.488281 C 43 52.488281 43.265625 52.449219 43.5 52.375 C 43.730469 52.300781 43.925781 52.199219 44.082031 52.066406 C 44.238281 51.933594 44.359375 51.773438 44.4375 51.589844 C 44.515625 51.402344 44.558594 51.203125 44.558594 50.984375 C 44.558594 50.804688 44.527344 50.652344 44.46875 50.523438 C 44.410156 50.394531 44.332031 50.285156 44.238281 50.199219 Z M 44.238281 50.199219 "/>
<path style=" stroke:none;fill-rule:nonzero;fill:rgb(21.568627%,38.431373%,96.470588%);fill-opacity:1;" d="M 47.984375 50.199219 C 47.886719 50.109375 47.777344 50.035156 47.65625 49.972656 C 47.535156 49.910156 47.410156 49.855469 47.28125 49.8125 C 47.15625 49.765625 47.027344 49.726562 46.90625 49.6875 C 46.785156 49.652344 46.675781 49.613281 46.578125 49.570312 C 46.484375 49.53125 46.40625 49.484375 46.347656 49.429688 C 46.289062 49.375 46.261719 49.308594 46.261719 49.226562 C 46.261719 49.109375 46.304688 49.023438 46.394531 48.957031 C 46.484375 48.894531 46.613281 48.863281 46.78125 48.863281 C 46.894531 48.863281 47 48.875 47.089844 48.902344 C 47.183594 48.929688 47.261719 48.960938 47.335938 48.988281 C 47.410156 49.019531 47.476562 49.050781 47.539062 49.078125 C 47.601562 49.105469 47.664062 49.117188 47.726562 49.117188 C 47.785156 49.117188 47.832031 49.105469 47.871094 49.082031 C 47.910156 49.0625 47.949219 49.023438 47.980469 48.96875 L 48.277344 48.503906 C 48.195312 48.421875 48.101562 48.347656 47.992188 48.277344 C 47.886719 48.207031 47.765625 48.148438 47.636719 48.09375 C 47.503906 48.042969 47.367188 48.003906 47.214844 47.976562 C 47.066406 47.949219 46.914062 47.933594 46.753906 47.933594 C 46.460938 47.933594 46.207031 47.972656 45.988281 48.046875 C 45.769531 48.121094 45.585938 48.222656 45.441406 48.351562 C 45.296875 48.480469 45.1875 48.628906 45.117188 48.796875 C 45.042969 48.964844 45.007812 49.144531 45.007812 49.332031 C 45.007812 49.53125 45.039062 49.703125 45.097656 49.847656 C 45.15625 49.988281 45.234375 50.109375 45.332031 50.207031 C 45.429688 50.304688 45.539062 50.386719 45.660156 50.449219 C 45.785156 50.511719 45.910156 50.566406 46.039062 50.613281 C 46.167969 50.660156 46.292969 50.699219 46.417969 50.734375 C 46.539062 50.769531 46.648438 50.808594 46.746094 50.851562 C 46.84375 50.890625 46.921875 50.941406 46.980469 50.996094 C 47.039062 51.054688 47.070312 51.125 47.070312 51.214844 C 47.070312 51.261719 47.058594 51.308594 47.039062 51.355469 C 47.019531 51.398438 46.988281 51.441406 46.945312 51.476562 C 46.902344 51.515625 46.847656 51.542969 46.777344 51.566406 C 46.707031 51.585938 46.617188 51.597656 46.515625 51.597656 C 46.371094 51.597656 46.25 51.582031 46.15625 51.546875 C 46.0625 51.511719 45.976562 51.476562 45.90625 51.433594 C 45.835938 51.394531 45.769531 51.359375 45.707031 51.324219 C 45.648438 51.289062 45.578125 51.273438 45.503906 51.273438 C 45.417969 51.273438 45.351562 51.289062 45.300781 51.320312 C 45.25 51.355469 45.207031 51.398438 45.167969 51.457031 L 44.863281 51.941406 C 44.949219 52.019531 45.050781 52.089844 45.167969 52.15625 C 45.289062 52.222656 45.417969 52.28125 45.558594 52.328125 C 45.699219 52.378906 45.84375 52.414062 45.996094 52.445312 C 46.144531 52.472656 46.296875 52.488281 46.449219 52.488281 C 46.75 52.488281 47.015625 52.449219 47.246094 52.375 C 47.476562 52.300781 47.671875 52.199219 47.832031 52.066406 C 47.988281 51.933594 48.105469 51.773438 48.1875 51.589844 C 48.230469 51.488281 48.257812 51.386719 48.277344 51.277344 L 49.367188 51.277344 L 49.367188 50.226562 L 48.007812 50.226562 C 47.996094 50.21875 47.992188 50.207031 47.984375 50.199219 Z M 47.984375 50.199219 "/>
<path style=" stroke:none;fill-rule:nonzero;fill:rgb(3.137255%,6.27451%,16.862745%);fill-opacity:1;" d="M 56.582031 46.265625 C 56.542969 46.265625 56.511719 46.273438 56.480469 46.285156 C 56.449219 46.296875 56.425781 46.316406 56.398438 46.339844 C 56.375 46.367188 56.351562 46.402344 56.328125 46.441406 L 54.507812 49.855469 C 54.457031 49.945312 54.414062 50.042969 54.371094 50.140625 C 54.328125 50.242188 54.285156 50.339844 54.246094 50.441406 C 54.207031 50.34375 54.164062 50.246094 54.125 50.148438 C 54.082031 50.050781 54.039062 49.953125 53.992188 49.863281 L 52.152344 46.441406 C 52.128906 46.402344 52.105469 46.367188 52.078125 46.339844 C 52.050781 46.316406 52.023438 46.296875 51.996094 46.285156 C 51.964844 46.273438 51.933594 46.265625 51.894531 46.265625 C 51.859375 46.261719 51.8125 46.257812 51.761719 46.257812 L 50.898438 46.257812 L 50.898438 52.417969 L 51.90625 52.417969 L 51.90625 48.441406 C 51.90625 48.363281 51.90625 48.28125 51.902344 48.191406 C 51.894531 48.101562 51.886719 48.011719 51.878906 47.917969 L 53.765625 51.421875 C 53.804688 51.503906 53.863281 51.566406 53.929688 51.609375 C 54 51.652344 54.078125 51.675781 54.167969 51.675781 L 54.324219 51.675781 C 54.417969 51.675781 54.496094 51.652344 54.566406 51.609375 C 54.632812 51.566406 54.6875 51.503906 54.730469 51.421875 L 56.59375 47.929688 C 56.582031 48.019531 56.578125 48.109375 56.574219 48.199219 C 56.570312 48.285156 56.566406 48.367188 56.566406 48.441406 L 56.566406 52.417969 L 57.578125 52.417969 L 57.578125 46.257812 L 56.710938 46.257812 C 56.660156 46.257812 56.617188 46.261719 56.582031 46.265625 Z M 56.582031 46.265625 "/>
<path style=" stroke:none;fill-rule:nonzero;fill:rgb(3.137255%,6.27451%,16.862745%);fill-opacity:1;" d="M 61.761719 48.441406 C 61.621094 48.292969 61.453125 48.175781 61.253906 48.09375 C 61.050781 48.011719 60.824219 47.96875 60.566406 47.96875 C 59.859375 47.96875 59.253906 48.199219 58.75 48.660156 L 58.941406 48.996094 C 58.972656 49.050781 59.011719 49.09375 59.066406 49.132812 C 59.117188 49.167969 59.175781 49.1875 59.246094 49.1875 C 59.332031 49.1875 59.410156 49.167969 59.480469 49.128906 C 59.550781 49.085938 59.628906 49.042969 59.714844 48.992188 C 59.796875 48.945312 59.894531 48.898438 60.011719 48.859375 C 60.125 48.820312 60.265625 48.800781 60.4375 48.800781 C 60.671875 48.800781 60.851562 48.871094 60.976562 49.011719 C 61.097656 49.152344 61.160156 49.371094 61.160156 49.667969 L 61.160156 49.921875 C 60.664062 49.921875 60.246094 49.964844 59.910156 50.050781 C 59.578125 50.136719 59.308594 50.246094 59.105469 50.375 C 58.90625 50.503906 58.761719 50.648438 58.675781 50.808594 C 58.589844 50.972656 58.542969 51.132812 58.542969 51.300781 C 58.542969 51.496094 58.574219 51.667969 58.636719 51.816406 C 58.699219 51.964844 58.789062 52.089844 58.898438 52.1875 C 59.011719 52.289062 59.144531 52.363281 59.300781 52.414062 C 59.457031 52.460938 59.628906 52.488281 59.8125 52.488281 C 59.96875 52.488281 60.113281 52.472656 60.238281 52.449219 C 60.367188 52.425781 60.488281 52.386719 60.601562 52.335938 C 60.714844 52.285156 60.824219 52.21875 60.929688 52.144531 C 61.039062 52.070312 61.148438 51.980469 61.257812 51.882812 L 61.351562 52.195312 C 61.378906 52.285156 61.421875 52.347656 61.480469 52.375 C 61.535156 52.40625 61.613281 52.421875 61.714844 52.421875 L 62.183594 52.421875 L 62.183594 49.660156 C 62.183594 49.414062 62.148438 49.183594 62.078125 48.980469 C 62.003906 48.769531 61.898438 48.59375 61.761719 48.441406 Z M 61.160156 51.296875 C 61.082031 51.375 61.007812 51.445312 60.933594 51.5 C 60.855469 51.558594 60.777344 51.609375 60.699219 51.644531 C 60.617188 51.6875 60.53125 51.714844 60.441406 51.734375 C 60.351562 51.753906 60.25 51.765625 60.144531 51.765625 C 59.964844 51.765625 59.824219 51.722656 59.714844 51.644531 C 59.605469 51.5625 59.550781 51.429688 59.550781 51.246094 C 59.550781 51.152344 59.578125 51.0625 59.628906 50.984375 C 59.683594 50.902344 59.769531 50.832031 59.894531 50.773438 C 60.019531 50.714844 60.1875 50.664062 60.390625 50.625 C 60.597656 50.585938 60.855469 50.566406 61.160156 50.566406 Z M 61.160156 51.296875 "/>
<path style=" stroke:none;fill-rule:nonzero;fill:rgb(3.137255%,6.27451%,16.862745%);fill-opacity:1;" d="M 66.652344 48.441406 C 66.53125 48.296875 66.375 48.183594 66.191406 48.101562 C 66.007812 48.019531 65.792969 47.980469 65.558594 47.980469 C 65.410156 47.980469 65.273438 47.996094 65.148438 48.023438 C 65.023438 48.050781 64.90625 48.09375 64.796875 48.148438 C 64.6875 48.199219 64.582031 48.265625 64.484375 48.339844 C 64.386719 48.414062 64.292969 48.496094 64.207031 48.585938 L 64.132812 48.242188 C 64.089844 48.113281 64 48.050781 63.867188 48.050781 L 63.222656 48.050781 L 63.222656 52.417969 L 64.273438 52.417969 L 64.273438 49.257812 C 64.417969 49.117188 64.566406 49.003906 64.726562 48.921875 C 64.886719 48.839844 65.054688 48.800781 65.238281 48.800781 C 65.484375 48.800781 65.667969 48.871094 65.792969 49.019531 C 65.917969 49.164062 65.980469 49.371094 65.980469 49.636719 L 65.980469 52.417969 L 67.03125 52.417969 L 67.03125 49.636719 C 67.03125 49.394531 67 49.171875 66.933594 48.964844 C 66.871094 48.761719 66.777344 48.589844 66.652344 48.441406 Z M 66.652344 48.441406 "/>
<path style=" stroke:none;fill-rule:nonzero;fill:rgb(3.137255%,6.27451%,16.862745%);fill-opacity:1;" d="M 71.066406 48.441406 C 70.925781 48.292969 70.753906 48.175781 70.554688 48.09375 C 70.355469 48.011719 70.128906 47.96875 69.871094 47.96875 C 69.160156 47.96875 68.554688 48.199219 68.050781 48.660156 L 68.246094 48.996094 C 68.277344 49.050781 68.316406 49.09375 68.367188 49.132812 C 68.417969 49.167969 68.480469 49.1875 68.550781 49.1875 C 68.636719 49.1875 68.714844 49.167969 68.785156 49.128906 C 68.855469 49.085938 68.933594 49.042969 69.015625 48.992188 C 69.101562 48.945312 69.199219 48.898438 69.3125 48.859375 C 69.425781 48.820312 69.570312 48.800781 69.738281 48.800781 C 69.976562 48.800781 70.15625 48.871094 70.277344 49.011719 C 70.402344 49.152344 70.464844 49.371094 70.464844 49.667969 L 70.464844 49.921875 C 69.964844 49.921875 69.550781 49.964844 69.214844 50.050781 C 68.878906 50.136719 68.613281 50.246094 68.410156 50.375 C 68.207031 50.503906 68.066406 50.648438 67.976562 50.808594 C 67.890625 50.972656 67.847656 51.132812 67.847656 51.300781 C 67.847656 51.496094 67.878906 51.667969 67.941406 51.816406 C 68.003906 51.964844 68.089844 52.089844 68.203125 52.1875 C 68.316406 52.289062 68.449219 52.363281 68.605469 52.414062 C 68.761719 52.460938 68.933594 52.488281 69.117188 52.488281 C 69.273438 52.488281 69.414062 52.472656 69.542969 52.449219 C 69.671875 52.425781 69.792969 52.386719 69.90625 52.335938 C 70.019531 52.285156 70.128906 52.21875 70.234375 52.144531 C 70.339844 52.070312 70.449219 51.980469 70.5625 51.882812 L 70.65625 52.195312 C 70.683594 52.285156 70.726562 52.347656 70.78125 52.375 C 70.839844 52.40625 70.917969 52.421875 71.015625 52.421875 L 71.488281 52.421875 L 71.488281 49.660156 C 71.488281 49.414062 71.453125 49.183594 71.378906 48.980469 C 71.308594 48.769531 71.203125 48.59375 71.066406 48.441406 Z M 70.464844 51.296875 C 70.386719 51.375 70.3125 51.445312 70.234375 51.5 C 70.160156 51.558594 70.082031 51.609375 70.003906 51.644531 C 69.921875 51.6875 69.835938 51.714844 69.746094 51.734375 C 69.652344 51.753906 69.554688 51.765625 69.445312 51.765625 C 69.269531 51.765625 69.128906 51.722656 69.019531 51.644531 C 68.910156 51.5625 68.855469 51.429688 68.855469 51.246094 C 68.855469 51.152344 68.878906 51.0625 68.933594 50.984375 C 68.984375 50.902344 69.074219 50.832031 69.199219 50.773438 C 69.324219 50.714844 69.488281 50.664062 69.695312 50.625 C 69.902344 50.585938 70.15625 50.566406 70.464844 50.566406 Z M 70.464844 51.296875 "/>
<path style=" stroke:none;fill-rule:nonzero;fill:rgb(3.137255%,6.27451%,16.862745%);fill-opacity:1;" d="M 74.566406 48.027344 C 74.402344 47.992188 74.226562 47.972656 74.039062 47.972656 C 73.789062 47.972656 73.558594 48.003906 73.347656 48.070312 C 73.136719 48.136719 72.953125 48.230469 72.796875 48.351562 C 72.640625 48.476562 72.519531 48.625 72.433594 48.800781 C 72.347656 48.972656 72.304688 49.171875 72.304688 49.386719 C 72.304688 49.652344 72.367188 49.886719 72.496094 50.085938 C 72.621094 50.285156 72.792969 50.441406 73.015625 50.5625 C 72.917969 50.609375 72.835938 50.664062 72.765625 50.726562 C 72.691406 50.785156 72.632812 50.851562 72.585938 50.917969 C 72.539062 50.988281 72.503906 51.058594 72.484375 51.125 C 72.460938 51.195312 72.449219 51.261719 72.449219 51.328125 C 72.449219 51.488281 72.480469 51.617188 72.546875 51.714844 C 72.613281 51.816406 72.699219 51.894531 72.808594 51.953125 C 72.585938 52.035156 72.410156 52.148438 72.285156 52.285156 C 72.160156 52.425781 72.097656 52.597656 72.097656 52.800781 C 72.097656 52.953125 72.140625 53.097656 72.21875 53.238281 C 72.296875 53.375 72.417969 53.5 72.578125 53.605469 C 72.738281 53.710938 72.941406 53.796875 73.183594 53.859375 C 73.429688 53.925781 73.71875 53.957031 74.050781 53.957031 C 74.386719 53.957031 74.683594 53.914062 74.945312 53.828125 C 75.207031 53.738281 75.425781 53.625 75.605469 53.484375 C 75.789062 53.339844 75.925781 53.179688 76.019531 52.996094 C 76.113281 52.8125 76.164062 52.625 76.164062 52.433594 C 76.164062 52.222656 76.121094 52.054688 76.042969 51.921875 C 75.960938 51.789062 75.851562 51.683594 75.722656 51.605469 C 75.589844 51.53125 75.441406 51.472656 75.273438 51.4375 C 75.105469 51.402344 74.933594 51.378906 74.757812 51.363281 C 74.582031 51.347656 74.410156 51.34375 74.242188 51.34375 C 74.074219 51.34375 73.925781 51.332031 73.792969 51.316406 C 73.660156 51.300781 73.554688 51.269531 73.472656 51.226562 C 73.390625 51.1875 73.351562 51.121094 73.351562 51.03125 C 73.351562 50.929688 73.417969 50.835938 73.554688 50.753906 C 73.710938 50.785156 73.871094 50.800781 74.035156 50.800781 C 74.28125 50.800781 74.507812 50.769531 74.714844 50.699219 C 74.925781 50.632812 75.105469 50.539062 75.257812 50.417969 C 75.410156 50.296875 75.527344 50.148438 75.613281 49.972656 C 75.699219 49.796875 75.746094 49.601562 75.746094 49.386719 C 75.746094 49.296875 75.738281 49.207031 75.722656 49.125 C 75.707031 49.042969 75.683594 48.964844 75.65625 48.890625 L 76.046875 48.820312 C 76.128906 48.804688 76.1875 48.78125 76.222656 48.742188 C 76.257812 48.707031 76.273438 48.65625 76.273438 48.589844 L 76.273438 48.199219 L 75.015625 48.199219 C 74.882812 48.125 74.730469 48.066406 74.566406 48.027344 Z M 73.40625 52.125 C 73.539062 52.15625 73.675781 52.171875 73.816406 52.171875 C 73.957031 52.171875 74.09375 52.171875 74.222656 52.171875 C 74.355469 52.171875 74.480469 52.179688 74.597656 52.195312 C 74.714844 52.207031 74.820312 52.230469 74.90625 52.261719 C 74.996094 52.292969 75.066406 52.335938 75.117188 52.390625 C 75.167969 52.445312 75.191406 52.515625 75.191406 52.601562 C 75.191406 52.691406 75.171875 52.769531 75.128906 52.84375 C 75.085938 52.917969 75.019531 52.980469 74.925781 53.035156 C 74.835938 53.089844 74.71875 53.132812 74.574219 53.164062 C 74.433594 53.191406 74.265625 53.207031 74.066406 53.207031 C 73.875 53.207031 73.710938 53.195312 73.578125 53.167969 C 73.445312 53.140625 73.335938 53.101562 73.253906 53.054688 C 73.167969 53.007812 73.105469 52.949219 73.070312 52.882812 C 73.03125 52.816406 73.011719 52.742188 73.011719 52.667969 C 73.011719 52.550781 73.046875 52.449219 73.121094 52.359375 C 73.191406 52.269531 73.289062 52.191406 73.40625 52.125 Z M 74.765625 49.703125 C 74.730469 49.789062 74.683594 49.863281 74.621094 49.925781 C 74.554688 49.988281 74.476562 50.039062 74.378906 50.074219 C 74.28125 50.109375 74.167969 50.128906 74.039062 50.128906 C 73.910156 50.128906 73.796875 50.109375 73.699219 50.074219 C 73.601562 50.039062 73.519531 49.988281 73.457031 49.925781 C 73.394531 49.863281 73.34375 49.785156 73.3125 49.699219 C 73.277344 49.609375 73.261719 49.515625 73.261719 49.414062 C 73.261719 49.195312 73.328125 49.027344 73.457031 48.898438 C 73.585938 48.773438 73.78125 48.710938 74.039062 48.710938 C 74.296875 48.710938 74.492188 48.773438 74.621094 48.898438 C 74.75 49.027344 74.8125 49.195312 74.8125 49.414062 C 74.8125 49.515625 74.796875 49.613281 74.765625 49.703125 Z M 74.765625 49.703125 "/>
<path style=" stroke:none;fill-rule:nonzero;fill:rgb(3.137255%,6.27451%,16.862745%);fill-opacity:1;" d="M 80.097656 48.5 C 79.933594 48.328125 79.730469 48.199219 79.5 48.113281 C 79.269531 48.023438 79.015625 47.980469 78.742188 47.980469 C 78.414062 47.980469 78.121094 48.035156 77.859375 48.152344 C 77.601562 48.265625 77.382812 48.417969 77.199219 48.613281 C 77.019531 48.808594 76.882812 49.035156 76.785156 49.300781 C 76.6875 49.5625 76.640625 49.84375 76.640625 50.140625 C 76.640625 50.523438 76.695312 50.859375 76.808594 51.152344 C 76.917969 51.441406 77.070312 51.6875 77.261719 51.882812 C 77.457031 52.082031 77.683594 52.230469 77.945312 52.332031 C 78.203125 52.433594 78.488281 52.484375 78.792969 52.484375 C 78.945312 52.484375 79.101562 52.472656 79.265625 52.449219 C 79.429688 52.425781 79.589844 52.386719 79.746094 52.332031 C 79.90625 52.277344 80.054688 52.203125 80.199219 52.109375 C 80.347656 52.019531 80.476562 51.902344 80.59375 51.769531 L 80.285156 51.386719 C 80.261719 51.355469 80.238281 51.328125 80.207031 51.3125 C 80.175781 51.296875 80.136719 51.285156 80.09375 51.285156 C 80.027344 51.285156 79.960938 51.308594 79.890625 51.347656 C 79.824219 51.386719 79.742188 51.429688 79.648438 51.480469 C 79.558594 51.527344 79.449219 51.570312 79.324219 51.613281 C 79.203125 51.652344 79.054688 51.671875 78.886719 51.671875 C 78.539062 51.671875 78.261719 51.566406 78.050781 51.355469 C 77.839844 51.144531 77.71875 50.816406 77.6875 50.367188 L 80.386719 50.367188 C 80.4375 50.367188 80.476562 50.359375 80.507812 50.347656 C 80.539062 50.335938 80.5625 50.316406 80.582031 50.285156 C 80.601562 50.253906 80.613281 50.214844 80.621094 50.160156 C 80.628906 50.109375 80.628906 50.042969 80.628906 49.964844 C 80.628906 49.648438 80.582031 49.367188 80.488281 49.121094 C 80.398438 48.875 80.269531 48.667969 80.097656 48.5 Z M 77.710938 49.730469 C 77.757812 49.414062 77.871094 49.167969 78.042969 48.996094 C 78.214844 48.820312 78.457031 48.734375 78.761719 48.734375 C 78.917969 48.734375 79.054688 48.761719 79.171875 48.8125 C 79.289062 48.867188 79.382812 48.9375 79.460938 49.027344 C 79.539062 49.121094 79.59375 49.226562 79.632812 49.347656 C 79.667969 49.46875 79.6875 49.59375 79.6875 49.730469 Z M 77.710938 49.730469 "/>
<path style=" stroke:none;fill-rule:nonzero;fill:rgb(3.137255%,6.27451%,16.862745%);fill-opacity:1;" d="M 83.738281 47.96875 C 83.476562 47.96875 83.242188 48.046875 83.03125 48.203125 C 82.820312 48.359375 82.636719 48.570312 82.480469 48.839844 L 82.417969 48.3125 C 82.402344 48.214844 82.375 48.148438 82.332031 48.109375 C 82.289062 48.070312 82.214844 48.050781 82.105469 48.050781 L 81.488281 48.050781 L 81.488281 52.417969 L 82.539062 52.417969 L 82.539062 49.699219 C 82.648438 49.464844 82.78125 49.289062 82.9375 49.167969 C 83.09375 49.046875 83.28125 48.984375 83.5 48.984375 C 83.621094 48.984375 83.71875 48.996094 83.792969 49.015625 C 83.867188 49.035156 83.925781 49.046875 83.96875 49.046875 C 84.015625 49.046875 84.054688 49.035156 84.082031 49.011719 C 84.113281 48.992188 84.128906 48.957031 84.136719 48.90625 L 84.277344 48.117188 C 84.132812 48.015625 83.953125 47.96875 83.738281 47.96875 Z M 83.738281 47.96875 "/>
</g>
</svg>
