<?xml version="1.0" encoding="utf-8"?>
<!-- Generator: Adobe Illustrator 24.0.1, SVG Export Plug-In . SVG Version: 6.00 Build 0)  -->
<svg version="1.1" id="Calque_1" xmlns="http://www.w3.org/2000/svg" xmlns:xlink="http://www.w3.org/1999/xlink" x="0px" y="0px"
	 viewBox="0 0 1920 1920" style="enable-background:new 0 0 1920 1920;" xml:space="preserve">
<style type="text/css">
	.st0{display:none;fill:#3762F6;}
	.st1{fill:#3762F6;}
	.st2{fill:#08102B;}
</style>
<rect class="st0" width="1920" height="1920"/>
<g>
	<g>
		<path class="st1" d="M387.3,846.62c7.97,0,15.42,3.93,19.93,10.5l61.18,89.22c5.69,8.3,5.69,19.03,0,27.33l-61.19,89.22
			c-4.51,6.57-11.96,10.5-19.93,10.5s-15.42-3.93-19.93-10.5l-61.18-89.22c-5.69-8.3-5.69-19.03,0-27.33l61.18-89.22
			C371.88,850.55,379.33,846.62,387.3,846.62z M392.21,867.41c-1.6-2.33-3.97-2.59-4.92-2.59c-0.95,0-3.32,0.26-4.92,2.59
			l-61.17,89.21c-1.4,2.03-1.4,4.72,0,6.75v0c2.9,4.23,7.26,6.99,12.01,7.95c3.67,0.74,7.57,0.42,11.22-1.11l40.72-17.07
			c2.63-1.1,5.34-0.48,7.21,1.12c1.88,1.6,2.92,4.17,2.25,6.94l-16.51,68.13c-1.1,4.55-1.08,9.25,0.01,13.7
			c0.82,3.38,2.25,6.62,4.26,9.55l0,0c1.6,2.33,3.97,2.59,4.92,2.59c0.95,0,3.32-0.26,4.92-2.59l61.18-89.22
			c0.7-1.02,1.04-2.19,1.04-3.37c0-1.18-0.35-2.35-1.04-3.37L392.21,867.41z"/>
	</g>
	<g>
		<path class="st1" d="M586.02,919.06c2.97-3.29,6.53-5.83,10.67-7.61c4.15-1.77,8.72-2.65,13.74-2.65c2.89,0,5.41,0.21,7.57,0.65
			c2.15,0.43,4.04,0.97,5.65,1.59c1.61,0.63,2.99,1.3,4.17,2.05c1.17,0.73,2.25,1.42,3.23,2.05c0.98,0.63,1.91,1.15,2.79,1.59
			c0.87,0.43,1.8,0.65,2.78,0.65c1.47,0,2.62-0.31,3.43-0.94c0.82-0.63,1.53-1.33,2.13-2.08l9.32-12.51
			c-2.23-2.35-4.8-4.49-7.69-6.42c-2.89-1.94-6.05-3.61-9.49-4.99c-3.44-1.4-7.13-2.48-11.08-3.27c-3.95-0.79-8.16-1.19-12.64-1.19
			c-9.21,0-17.64,1.5-25.27,4.49c-7.63,3-14.19,7.2-19.67,12.6s-9.75,11.82-12.8,19.26c-3.05,7.44-4.58,15.61-4.58,24.51
			c0,8.72,1.34,16.81,4.01,24.25c2.68,7.44,6.51,13.88,11.5,19.3c4.98,5.43,11.07,9.68,18.24,12.76s15.28,4.63,24.33,4.63
			c9.87,0,18.42-1.61,25.64-4.79s13.24-7.92,18.03-14.19l-10.96-11.53c-0.6-0.6-1.23-1.02-1.88-1.27c-0.65-0.26-1.31-0.37-1.96-0.37
			c-0.82,0-1.61,0.17-2.37,0.54c-0.77,0.35-1.47,0.8-2.13,1.35c-1.63,1.42-3.26,2.61-4.87,3.56c-1.61,0.95-3.3,1.72-5.07,2.33
			c-1.77,0.6-3.69,1.02-5.76,1.27c-2.08,0.24-4.36,0.37-6.87,0.37c-4.36,0-8.45-0.85-12.26-2.54c-3.82-1.7-7.16-4.16-10.02-7.41
			s-5.13-7.23-6.79-11.98c-1.67-4.75-2.49-10.17-2.49-16.27c0-5.84,0.83-11.1,2.49-15.79C580.72,926.35,583.04,922.36,586.02,919.06
			z"/>
		<rect x="663.43" y="884.01" class="st1" width="25.36" height="122.44"/>
		<path class="st1" d="M770.54,929.45c-2.86-2.97-6.35-5.28-10.47-6.96c-4.12-1.65-8.75-2.49-13.86-2.49
			c-7.15,0-13.84,1.1-20.09,3.31c-6.24,2.21-11.92,5.57-17.05,10.1l4.58,7.93c0.71,1.26,1.68,2.31,2.9,3.15
			c1.23,0.85,2.72,1.27,4.46,1.27c1.97,0,3.65-0.33,5.07-0.98c1.42-0.66,2.87-1.4,4.37-2.21c1.5-0.81,3.2-1.56,5.11-2.21
			c1.92-0.65,4.36-0.98,7.36-0.98c3.77,0,6.66,1.1,8.71,3.34s3.07,5.85,3.07,10.85v3.64c-9.71,0-17.75,0.87-24.12,2.62
			c-6.39,1.76-11.45,3.93-15.21,6.53c-3.76,2.61-6.41,5.49-7.94,8.67c-1.52,3.16-2.29,6.26-2.29,9.27c0,3.83,0.6,7.2,1.8,10.13
			c1.2,2.93,2.9,5.37,5.11,7.35c2.21,1.97,4.89,3.45,8.05,4.47c3.16,1.01,6.68,1.52,10.56,1.52c2.88,0,5.51-0.23,7.89-0.7
			c2.37-0.47,4.61-1.17,6.71-2.13c2.09-0.95,4.13-2.12,6.09-3.48c1.95-1.36,4-2.94,6.13-4.75l1.8,4.66
			c0.81,2.07,1.84,3.43,3.06,4.09c1.23,0.65,3.05,0.98,5.44,0.98h11.62v-53c0-4.85-0.77-9.33-2.29-13.41
			C775.58,935.95,773.4,932.42,770.54,929.45z M754.71,983.72c-2.51,2.56-4.99,4.42-7.44,5.56c-2.45,1.15-5.32,1.72-8.58,1.72
			c-3.06,0-5.37-0.59-6.96-1.78c-1.58-1.17-2.37-3.22-2.37-6.14c0-1.49,0.37-2.86,1.1-4.13c0.73-1.26,2.06-2.38,3.97-3.38
			c1.91-0.99,4.5-1.81,7.77-2.47c3.27-0.66,7.44-1,12.52-1V983.72z"/>
		<path class="st1" d="M849.34,963.8c-1.85-1.72-3.95-3.16-6.29-4.34c-2.35-1.17-4.75-2.2-7.2-3.07c-2.45-0.87-4.86-1.66-7.2-2.37
			c-2.35-0.7-4.44-1.45-6.3-2.24c-1.85-0.79-3.34-1.7-4.45-2.74c-1.12-1.04-1.67-2.34-1.67-3.92c0-2.19,0.86-3.88,2.58-5.12
			c1.71-1.22,4.18-1.84,7.4-1.84c2.23,0,4.22,0.26,5.97,0.78c1.74,0.52,3.31,1.08,4.71,1.67c1.38,0.6,2.68,1.16,3.88,1.67
			c1.2,0.52,2.4,0.78,3.59,0.78c1.15,0,2.08-0.22,2.83-0.65c0.73-0.44,1.43-1.17,2.08-2.21l5.72-8.92
			c-1.58-1.57-3.41-3.04-5.48-4.37c-2.07-1.34-4.36-2.49-6.87-3.48c-2.5-0.98-5.19-1.74-8.05-2.29c-2.86-0.54-5.83-0.81-8.87-0.81
			c-5.62,0-10.53,0.72-14.72,2.16c-4.2,1.45-7.69,3.4-10.47,5.85c-2.78,2.45-4.87,5.3-6.26,8.55c-1.4,3.25-2.08,6.66-2.08,10.27
			c0,3.87,0.57,7.16,1.71,9.9c1.15,2.72,2.65,5.02,4.5,6.91s3.97,3.43,6.34,4.66c2.37,1.22,4.78,2.27,7.23,3.14
			c2.45,0.87,4.87,1.65,7.25,2.34c2.37,0.67,4.48,1.42,6.34,2.21c1.85,0.79,3.35,1.73,4.49,2.81c1.15,1.09,1.72,2.49,1.72,4.18
			c0,0.93-0.19,1.83-0.57,2.7c-0.38,0.87-0.98,1.66-1.8,2.37c-0.81,0.71-1.91,1.27-3.27,1.67c-1.36,0.41-3.02,0.62-4.99,0.62
			c-2.78,0-5.08-0.33-6.91-0.99c-1.83-0.65-3.43-1.36-4.79-2.12c-1.36-0.77-2.63-1.48-3.8-2.13c-1.17-0.66-2.49-0.99-3.97-0.99
			c-1.58,0-2.86,0.31-3.84,0.94c-0.99,0.63-1.83,1.49-2.54,2.58l-5.9,9.32c1.64,1.48,3.61,2.85,5.9,4.14
			c2.29,1.28,4.78,2.38,7.48,3.3c2.7,0.93,5.49,1.66,8.39,2.21c2.88,0.55,5.78,0.83,8.67,0.83c5.78,0,10.9-0.71,15.34-2.13
			c4.44-1.42,8.18-3.41,11.2-5.98c3.04-2.56,5.3-5.61,6.84-9.15c1.52-3.55,2.28-7.42,2.28-11.62c0-3.43-0.56-6.37-1.67-8.83
			C852.67,967.61,851.19,965.51,849.34,963.8z"/>
		<path class="st1" d="M921.31,963.8c-1.85-1.72-3.95-3.16-6.29-4.34c-2.35-1.17-4.75-2.2-7.2-3.07s-4.86-1.66-7.2-2.37
			c-2.35-0.7-4.44-1.45-6.3-2.24c-1.85-0.79-3.34-1.7-4.45-2.74c-1.12-1.04-1.67-2.34-1.67-3.92c0-2.19,0.86-3.88,2.58-5.12
			c1.71-1.22,4.18-1.84,7.4-1.84c2.23,0,4.22,0.26,5.97,0.78c1.74,0.52,3.31,1.08,4.71,1.67c1.38,0.6,2.68,1.16,3.88,1.67
			c1.2,0.52,2.4,0.78,3.59,0.78c1.15,0,2.08-0.22,2.83-0.65c0.73-0.44,1.43-1.17,2.08-2.21l5.72-8.92
			c-1.58-1.57-3.41-3.04-5.48-4.37c-2.07-1.34-4.36-2.49-6.87-3.48c-2.5-0.98-5.19-1.74-8.05-2.29c-2.86-0.54-5.83-0.81-8.87-0.81
			c-5.62,0-10.53,0.72-14.72,2.16c-4.2,1.45-7.69,3.4-10.47,5.85c-2.78,2.45-4.87,5.3-6.26,8.55c-1.4,3.25-2.08,6.66-2.08,10.27
			c0,3.87,0.57,7.16,1.71,9.9c1.15,2.72,2.65,5.02,4.5,6.91c1.85,1.88,3.97,3.43,6.34,4.66c2.37,1.22,4.78,2.27,7.23,3.14
			s4.87,1.65,7.25,2.34c2.37,0.67,4.48,1.42,6.34,2.21c1.85,0.79,3.35,1.73,4.49,2.81c1.15,1.09,1.72,2.49,1.72,4.18
			c0,0.93-0.19,1.83-0.57,2.7c-0.38,0.87-0.98,1.66-1.8,2.37c-0.81,0.71-1.91,1.27-3.27,1.67c-1.36,0.41-3.02,0.62-4.99,0.62
			c-2.78,0-5.08-0.33-6.91-0.99c-1.83-0.65-3.43-1.36-4.79-2.12c-1.36-0.77-2.63-1.48-3.8-2.13c-1.17-0.66-2.49-0.99-3.97-0.99
			c-1.58,0-2.86,0.31-3.84,0.94c-0.99,0.63-1.83,1.49-2.54,2.58l-5.9,9.32c1.64,1.48,3.61,2.85,5.9,4.14
			c2.29,1.28,4.78,2.38,7.48,3.3c2.7,0.93,5.49,1.66,8.39,2.21c2.88,0.55,5.78,0.83,8.67,0.83c5.78,0,10.9-0.71,15.34-2.13
			c4.44-1.42,8.18-3.41,11.2-5.98c3.04-2.56,5.3-5.61,6.84-9.15c0.81-1.89,1.37-3.88,1.75-5.96h20.91v-20.18h-26.1
			C921.55,964.21,921.48,963.96,921.31,963.8z"/>
		<path class="st2" d="M1086.35,888.27c-0.71,0.05-1.35,0.19-1.92,0.41c-0.57,0.21-1.09,0.57-1.56,1.06
			c-0.45,0.49-0.91,1.15-1.35,1.97l-35,65.52c-0.93,1.74-1.8,3.57-2.62,5.48c-0.83,1.91-1.62,3.84-2.37,5.8
			c-0.77-1.91-1.55-3.8-2.34-5.69c-0.79-1.87-1.65-3.69-2.57-5.43l-35.33-65.68c-0.44-0.81-0.9-1.48-1.4-1.97
			c-0.49-0.49-1.02-0.85-1.59-1.06c-0.57-0.22-1.21-0.36-1.92-0.41c-0.71-0.06-1.56-0.09-2.54-0.09h-16.61v118.28h19.36h0.02v-76.39
			c0-1.48-0.03-3.07-0.12-4.78c-0.09-1.72-0.23-3.48-0.45-5.28l36.23,67.31c0.81,1.54,1.88,2.72,3.19,3.56
			c1.31,0.85,2.84,1.27,4.58,1.27h3.02c1.74,0,3.28-0.42,4.58-1.27c1.31-0.84,2.37-2.02,3.19-3.56l35.74-67.06
			c-0.16,1.74-0.28,3.47-0.36,5.15c-0.08,1.69-0.13,3.25-0.13,4.66v76.39h19.39V888.18h-16.61
			C1087.91,888.18,1087.06,888.21,1086.35,888.27z"/>
		<path class="st2" d="M1185.81,930.1c-2.68-2.86-5.93-5.09-9.77-6.7c-3.85-1.61-8.22-2.42-13.13-2.42
			c-13.63,0-25.27,4.42-34.93,13.26l3.69,6.46c0.59,1.04,1.38,1.91,2.37,2.62c0.98,0.71,2.15,1.07,3.51,1.07
			c1.64,0,3.14-0.38,4.5-1.15c1.36-0.76,2.85-1.62,4.45-2.57c1.6-0.95,3.5-1.81,5.69-2.58c2.18-0.76,4.91-1.14,8.18-1.14
			c4.52,0,7.98,1.36,10.35,4.07c2.37,2.72,3.56,6.91,3.56,12.57v4.94c-9.55,0-17.54,0.83-23.97,2.47
			c-6.43,1.64-11.58,3.71-15.46,6.2c-3.87,2.49-6.64,5.27-8.3,8.36c-1.66,3.09-2.49,6.22-2.49,9.4c0,3.78,0.59,7.08,1.8,9.93
			c1.2,2.84,2.87,5.22,5.02,7.14c2.15,1.91,4.73,3.35,7.73,4.3c2.99,0.95,6.27,1.44,9.8,1.44c3,0,5.73-0.26,8.19-0.74
			c2.45-0.49,4.77-1.22,6.94-2.21c2.19-0.98,4.3-2.19,6.34-3.64c2.05-1.44,4.14-3.12,6.26-5.02l1.8,5.97
			c0.55,1.74,1.36,2.91,2.45,3.48c1.09,0.57,2.59,0.86,4.5,0.86h9.07v-53c0-4.75-0.69-9.11-2.08-13.08
			C1190.51,936.39,1188.48,932.97,1185.81,930.1z M1174.28,984.93c-1.48,1.5-2.93,2.8-4.38,3.9c-1.44,1.1-2.94,2.04-4.49,2.78
			c-1.56,0.76-3.21,1.31-4.95,1.7c-1.74,0.37-3.65,0.56-5.72,0.56c-3.38,0-6.12-0.77-8.22-2.3c-2.09-1.54-3.15-4.09-3.15-7.66
			c0-1.81,0.51-3.49,1.52-5.02c1-1.54,2.71-2.88,5.11-4.04c2.4-1.15,5.57-2.11,9.53-2.84c3.95-0.74,8.87-1.12,14.77-1.12V984.93z"/>
		<path class="st2" d="M1279.74,930.1c-2.37-2.8-5.33-4.98-8.87-6.54c-3.54-1.56-7.61-2.34-12.18-2.34c-2.84,0-5.45,0.28-7.85,0.83
			c-2.41,0.55-4.65,1.34-6.76,2.37c-2.09,1.04-4.08,2.26-5.97,3.68c-1.88,1.42-3.66,3-5.36,4.75l-1.38-6.63
			c-0.81-2.45-2.54-3.68-5.15-3.68h-12.35v83.92h20.2v-60.69c2.72-2.72,5.62-4.87,8.67-6.46c3.06-1.58,6.33-2.37,9.82-2.37
			c4.75,0,8.3,1.4,10.68,4.21c2.37,2.8,3.56,6.77,3.56,11.9v53.41h20.2v-53.41c0-4.69-0.62-8.98-1.84-12.89
			C1283.92,936.26,1282.11,932.91,1279.74,930.1z"/>
		<path class="st2" d="M1364.44,930.1c-2.68-2.86-5.93-5.09-9.77-6.7c-3.85-1.61-8.22-2.42-13.13-2.42
			c-13.63,0-25.27,4.42-34.93,13.26l3.69,6.46c0.59,1.04,1.38,1.91,2.37,2.62c0.98,0.71,2.15,1.07,3.51,1.07
			c1.64,0,3.14-0.38,4.5-1.15c1.36-0.76,2.85-1.62,4.45-2.57c1.6-0.95,3.5-1.81,5.69-2.58c2.18-0.76,4.91-1.14,8.18-1.14
			c4.52,0,7.98,1.36,10.35,4.07c2.37,2.72,3.56,6.91,3.56,12.57v4.94c-9.55,0-17.54,0.83-23.97,2.47
			c-6.43,1.64-11.58,3.71-15.46,6.2c-3.87,2.49-6.64,5.27-8.3,8.36c-1.66,3.09-2.49,6.22-2.49,9.4c0,3.78,0.59,7.08,1.8,9.93
			c1.2,2.84,2.87,5.22,5.02,7.14c2.15,1.91,4.73,3.35,7.73,4.3c2.99,0.95,6.27,1.44,9.8,1.44c3,0,5.73-0.26,8.19-0.74
			c2.45-0.49,4.77-1.22,6.94-2.21c2.19-0.98,4.3-2.19,6.34-3.64c2.05-1.44,4.14-3.12,6.26-5.02l1.8,5.97
			c0.55,1.74,1.36,2.91,2.45,3.48c1.09,0.57,2.59,0.86,4.5,0.86h9.07v-53c0-4.75-0.69-9.11-2.08-13.08
			C1369.14,936.39,1367.11,932.97,1364.44,930.1z M1352.91,984.93c-1.48,1.5-2.93,2.8-4.38,3.9c-1.44,1.1-2.94,2.04-4.49,2.78
			c-1.56,0.76-3.21,1.31-4.95,1.7c-1.74,0.37-3.65,0.56-5.72,0.56c-3.38,0-6.12-0.77-8.22-2.3c-2.09-1.54-3.15-4.09-3.15-7.66
			c0-1.81,0.51-3.49,1.52-5.02c1-1.54,2.71-2.88,5.11-4.04s5.57-2.11,9.53-2.84c3.95-0.74,8.87-1.12,14.77-1.12V984.93z"/>
		<path class="st2" d="M1431.68,922.16c-3.16-0.73-6.55-1.1-10.14-1.1c-4.8,0-9.23,0.63-13.29,1.88c-4.06,1.26-7.57,3.07-10.55,5.44
			c-2.98,2.37-5.29,5.23-6.96,8.58c-1.66,3.35-2.49,7.11-2.49,11.25c0,5.13,1.21,9.6,3.64,13.41c2.42,3.83,5.77,6.87,10.01,9.17
			c-1.85,0.93-3.47,1.98-4.83,3.15c-1.36,1.17-2.49,2.41-3.4,3.72c-0.9,1.3-1.56,2.63-2,3.97c-0.43,1.34-0.65,2.63-0.65,3.88
			c0,3.05,0.63,5.54,1.88,7.44c1.24,1.91,2.91,3.43,4.99,4.57c-4.26,1.59-7.58,3.71-9.98,6.39c-2.41,2.68-3.61,5.97-3.61,9.9
			c0,2.88,0.77,5.66,2.29,8.34c1.52,2.68,3.83,5.04,6.91,7.07c3.08,2.05,6.97,3.69,11.65,4.91c4.7,1.23,10.24,1.85,16.61,1.85
			c6.43,0,12.15-0.84,17.18-2.51c5.01-1.66,9.25-3.86,12.71-6.59c3.47-2.74,6.11-5.86,7.93-9.36c1.83-3.5,2.74-7.11,2.74-10.83
			c0-3.99-0.78-7.26-2.33-9.8c-1.56-2.55-3.61-4.56-6.14-6.04c-2.54-1.48-5.41-2.56-8.63-3.23c-3.21-0.69-6.51-1.16-9.9-1.44
			c-3.37-0.27-6.68-0.41-9.9-0.41c-3.21,0-6.08-0.16-8.62-0.5c-2.54-0.33-4.58-0.88-6.14-1.69c-1.55-0.79-2.33-2.05-2.33-3.75
			c0-1.98,1.3-3.77,3.92-5.36c3,0.6,6.08,0.91,9.25,0.91c4.69,0,9.04-0.64,13.05-1.92c4-1.29,7.47-3.09,10.39-5.44
			c2.91-2.35,5.2-5.2,6.86-8.55c1.66-3.35,2.5-7.11,2.5-11.25c0-1.74-0.15-3.41-0.45-4.99c-0.3-1.58-0.72-3.08-1.27-4.5l7.53-1.38
			c1.58-0.28,2.7-0.77,3.35-1.48c0.66-0.71,0.99-1.69,0.99-2.94v-7.53h-24.13C1437.73,923.98,1434.84,922.91,1431.68,922.16z
			 M1409.43,1000.81c2.51,0.59,5.12,0.9,7.82,0.9s5.32,0,7.85,0s4.93,0.14,7.2,0.42c2.26,0.28,4.23,0.71,5.92,1.29
			c1.7,0.59,3.04,1.41,4.01,2.47c0.98,1.06,1.48,2.42,1.48,4.09c0,1.66-0.42,3.21-1.23,4.63c-0.81,1.42-2.12,2.65-3.88,3.68
			c-1.77,1.04-4.02,1.84-6.75,2.43c-2.73,0.58-5.97,0.87-9.74,0.87c-3.71,0-6.84-0.26-9.41-0.78c-2.56-0.51-4.64-1.24-6.26-2.16
			c-1.61-0.93-2.78-2.04-3.51-3.31s-1.1-2.66-1.1-4.13c0-2.23,0.7-4.21,2.08-5.93C1405.3,1003.55,1407.14,1002.07,1409.43,1000.81z
			 M1435.48,954.27c-0.63,1.7-1.56,3.14-2.78,4.34c-1.23,1.2-2.77,2.14-4.63,2.83c-1.85,0.67-4.04,1.02-6.54,1.02
			c-2.45,0-4.62-0.35-6.5-1.02c-1.88-0.69-3.43-1.64-4.66-2.86c-1.22-1.23-2.15-2.69-2.78-4.38c-0.63-1.69-0.94-3.51-0.94-5.48
			c0-4.14,1.24-7.42,3.72-9.85c2.48-2.43,6.2-3.64,11.17-3.64c4.95,0,8.68,1.21,11.17,3.64c2.48,2.43,3.72,5.71,3.72,9.85
			C1436.42,950.73,1436.11,952.58,1435.48,954.27z"/>
		<path class="st2" d="M1537.91,931.17c-3.21-3.25-7.05-5.71-11.49-7.41c-4.44-1.69-9.3-2.54-14.6-2.54
			c-6.27,0-11.9,1.09-16.89,3.28c-4.99,2.17-9.21,5.14-12.68,8.87c-3.47,3.73-6.12,8.12-7.98,13.17
			c-1.85,5.05-2.78,10.43-2.78,16.16c0,7.36,1.07,13.83,3.2,19.42c2.12,5.59,5.04,10.28,8.75,14.06c3.71,3.79,8.07,6.65,13.08,8.6
			c5.01,1.93,10.44,2.9,16.28,2.9c2.94,0,5.98-0.21,9.12-0.65c3.13-0.43,6.21-1.19,9.23-2.24c3.02-1.07,5.93-2.48,8.71-4.26
			c2.78-1.77,5.29-3.97,7.53-6.58l-5.89-7.36c-0.44-0.59-0.95-1.06-1.56-1.38c-0.59-0.33-1.3-0.5-2.13-0.5
			c-1.26,0-2.55,0.38-3.88,1.15c-1.34,0.77-2.88,1.61-4.66,2.54c-1.77,0.93-3.84,1.77-6.21,2.54c-2.37,0.77-5.19,1.14-8.47,1.14
			c-6.65,0-11.99-2.01-16.03-6.05c-4.04-4.04-6.35-10.36-6.96-18.98h51.86c0.92,0,1.69-0.12,2.28-0.36c0.6-0.24,1.08-0.65,1.44-1.23
			c0.35-0.57,0.59-1.36,0.73-2.37c0.13-1,0.2-2.27,0.2-3.8c0-6.05-0.9-11.43-2.7-16.14
			C1543.65,938.39,1541.14,934.41,1537.91,931.17z M1492.03,954.85c0.93-6.11,3.06-10.83,6.39-14.15c3.33-3.33,7.93-4.99,13.82-4.99
			c3,0,5.62,0.51,7.85,1.51c2.24,1.01,4.09,2.38,5.57,4.13c1.47,1.74,2.56,3.78,3.27,6.09c0.71,2.33,1.06,4.79,1.06,7.41H1492.03z"
			/>
		<path class="st2" d="M1607.76,920.98c-5.01,0-9.54,1.5-13.57,4.5c-4.04,3-7.55,7.09-10.55,12.27l-1.22-10.14
			c-0.28-1.85-0.83-3.16-1.64-3.93c-0.81-0.76-2.27-1.14-4.34-1.14h-11.86v83.92h20.2v-52.27c2.08-4.47,4.62-7.86,7.61-10.18
			c3-2.31,6.61-3.48,10.81-3.48c2.34,0,4.22,0.2,5.64,0.57c1.42,0.38,2.54,0.58,3.35,0.58c0.93,0,1.66-0.21,2.21-0.62
			c0.55-0.41,0.9-1.1,1.06-2.09l2.63-15.12C1615.34,921.93,1611.91,920.98,1607.76,920.98z"/>
	</g>
</g>
</svg>
