<?xml version="1.0" encoding="utf-8"?>
<!-- Generator: Adobe Illustrator 24.0.1, SVG Export Plug-In . SVG Version: 6.00 Build 0)  -->
<svg version="1.1" id="Calque_1" xmlns="http://www.w3.org/2000/svg" xmlns:xlink="http://www.w3.org/1999/xlink" x="0px" y="0px"
	 viewBox="0 0 1920 1920" style="enable-background:new 0 0 1920 1920;" xml:space="preserve">
<style type="text/css">
	.st0{display:none;fill:#08102B;}
	.st1{fill:#3762F6;}
	.st2{fill:#08102B;}
</style>
<rect class="st0" width="1920" height="1920"/>
<g>
	<g>
		<path class="st1" d="M960,682.14c9.8,0,18.97,4.83,24.52,12.91l75.26,109.75c7,10.21,7,23.41,0.01,33.62l-75.27,109.75
			c-5.54,8.08-14.71,12.91-24.52,12.91s-18.97-4.83-24.52-12.91l-75.26-109.75c-7-10.21-7-23.41-0.01-33.62l75.26-109.75
			C941.03,686.97,950.19,682.14,960,682.14z M966.04,707.72c-1.97-2.86-4.88-3.18-6.05-3.18s-4.08,0.32-6.05,3.18L878.7,817.46
			c-1.72,2.5-1.72,5.8,0,8.31v0c3.57,5.21,8.93,8.6,14.77,9.78c4.51,0.91,9.31,0.52,13.8-1.36l50.09-20.99
			c3.24-1.36,6.57-0.59,8.87,1.38c2.31,1.97,3.6,5.13,2.77,8.54l-20.31,83.81c-1.36,5.6-1.32,11.37,0.01,16.85
			c1.01,4.16,2.77,8.14,5.24,11.74l0,0c1.97,2.86,4.88,3.18,6.05,3.18s4.08-0.32,6.05-3.18l75.26-109.75
			c0.86-1.25,1.28-2.7,1.28-4.15s-0.43-2.9-1.28-4.15L966.04,707.72z"/>
	</g>
	<g>
		<path class="st1" d="M348.43,1094.02c3.66-4.05,8.03-7.17,13.13-9.36c5.1-2.17,10.73-3.26,16.9-3.26c3.56,0,6.66,0.26,9.31,0.8
			c2.65,0.53,4.96,1.19,6.95,1.96c1.97,0.77,3.68,1.6,5.13,2.52c1.44,0.9,2.77,1.75,3.97,2.52c1.21,0.77,2.35,1.42,3.43,1.96
			c1.07,0.53,2.21,0.8,3.42,0.8c1.81,0,3.22-0.39,4.22-1.16c1.01-0.77,1.88-1.63,2.62-2.56l11.47-15.4c-2.75-2.89-5.9-5.52-9.46-7.9
			c-3.56-2.39-7.44-4.44-11.67-6.14c-4.23-1.72-8.77-3.05-13.64-4.02c-4.86-0.97-10.04-1.46-15.55-1.46
			c-11.33,0-21.7,1.85-31.09,5.52c-9.39,3.69-17.46,8.86-24.19,15.5c-6.74,6.64-11.99,14.54-15.75,23.69
			c-3.76,9.16-5.64,19.2-5.64,30.15c0,10.73,1.65,20.67,4.93,29.83c3.29,9.16,8.01,17.07,14.14,23.74
			c6.13,6.68,13.61,11.9,22.43,15.7c8.82,3.79,18.79,5.69,29.93,5.69c12.14,0,22.66-1.97,31.54-5.89
			c8.89-3.92,16.28-9.74,22.18-17.46l-13.48-14.18c-0.74-0.74-1.51-1.26-2.32-1.56c-0.8-0.31-1.61-0.46-2.41-0.46
			c-1.01,0-1.98,0.21-2.92,0.66c-0.94,0.43-1.81,0.99-2.62,1.66c-2.01,1.75-4.01,3.2-5.99,4.38c-1.97,1.17-4.06,2.12-6.24,2.86
			c-2.17,0.74-4.54,1.26-7.09,1.56c-2.55,0.3-5.37,0.46-8.46,0.46c-5.37,0-10.39-1.04-15.09-3.12c-4.7-2.09-8.81-5.12-12.33-9.11
			c-3.52-3.99-6.31-8.9-8.35-14.74c-2.05-5.84-3.07-12.51-3.07-20.02c0-7.18,1.02-13.65,3.07-19.43
			C341.92,1102.99,344.77,1098.09,348.43,1094.02z"/>
		<rect x="443.65" y="1050.91" class="st1" width="31.19" height="150.62"/>
		<path class="st1" d="M575.41,1106.8c-3.52-3.65-7.81-6.5-12.88-8.56c-5.07-2.03-10.76-3.06-17.05-3.06
			c-8.8,0-17.03,1.36-24.71,4.08c-7.68,2.72-14.67,6.85-20.97,12.42l5.63,9.76c0.87,1.55,2.07,2.85,3.57,3.88
			c1.51,1.04,3.34,1.56,5.49,1.56c2.42,0,4.49-0.4,6.24-1.2c1.75-0.82,3.53-1.72,5.38-2.72c1.85-1,3.93-1.92,6.28-2.72
			c2.36-0.8,5.37-1.2,9.06-1.2c4.64,0,8.2,1.36,10.72,4.11s3.78,7.2,3.78,13.35v4.48c-11.95,0-21.83,1.07-29.67,3.22
			c-7.85,2.16-14.09,4.84-18.71,8.03c-4.63,3.2-7.88,6.75-9.77,10.66c-1.87,3.89-2.81,7.7-2.81,11.4c0,4.71,0.74,8.86,2.21,12.46
			c1.47,3.61,3.57,6.61,6.29,9.04c2.72,2.42,6.02,4.25,9.91,5.49c3.88,1.24,8.22,1.87,12.98,1.87c3.55,0,6.78-0.29,9.7-0.86
			c2.92-0.57,5.67-1.45,8.26-2.62c2.58-1.17,5.08-2.6,7.5-4.28c2.4-1.67,4.92-3.62,7.54-5.84l2.22,5.74c1,2.55,2.26,4.22,3.76,5.04
			c1.52,0.8,3.75,1.2,6.7,1.2h14.29v-65.2c0-5.97-0.94-11.47-2.82-16.5C581.62,1114.8,578.93,1110.46,575.41,1106.8z
			 M555.94,1173.56c-3.09,3.15-6.14,5.44-9.16,6.84c-3.02,1.42-6.54,2.12-10.56,2.12c-3.76,0-6.61-0.73-8.56-2.19
			c-1.95-1.45-2.92-3.96-2.92-7.55c0-1.83,0.46-3.52,1.36-5.08c0.9-1.55,2.53-2.93,4.88-4.16c2.35-1.22,5.54-2.23,9.56-3.03
			c4.02-0.82,9.16-1.23,15.4-1.23V1173.56z"/>
		<path class="st1" d="M672.35,1149.07c-2.27-2.12-4.86-3.89-7.74-5.34c-2.89-1.45-5.84-2.7-8.86-3.78
			c-3.02-1.07-5.98-2.05-8.86-2.92c-2.89-0.86-5.47-1.79-7.75-2.76c-2.27-0.97-4.11-2.09-5.48-3.38c-1.37-1.27-2.06-2.88-2.06-4.82
			c0-2.69,1.06-4.78,3.18-6.3c2.1-1.5,5.14-2.26,9.1-2.26c2.75,0,5.19,0.31,7.34,0.96c2.15,0.64,4.08,1.33,5.79,2.06
			c1.7,0.74,3.29,1.43,4.78,2.06c1.47,0.64,2.95,0.96,4.42,0.96c1.42,0,2.56-0.27,3.48-0.8c0.9-0.54,1.76-1.45,2.56-2.72l7.04-10.97
			c-1.95-1.93-4.19-3.73-6.74-5.38c-2.55-1.65-5.37-3.06-8.46-4.28c-3.08-1.2-6.38-2.15-9.9-2.82c-3.52-0.66-7.17-1-10.92-1
			c-6.91,0-12.95,0.89-18.11,2.66c-5.17,1.79-9.46,4.18-12.88,7.2c-3.42,3.02-5.99,6.52-7.7,10.52c-1.72,3.99-2.56,8.2-2.56,12.63
			c0,4.76,0.7,8.81,2.1,12.18c1.42,3.35,3.26,6.18,5.54,8.5c2.27,2.32,4.88,4.22,7.8,5.74c2.92,1.5,5.88,2.79,8.9,3.86
			c3.02,1.07,5.99,2.03,8.91,2.88c2.92,0.83,5.51,1.75,7.8,2.72c2.27,0.97,4.12,2.13,5.52,3.46c1.42,1.34,2.12,3.06,2.12,5.14
			c0,1.14-0.23,2.25-0.7,3.32s-1.2,2.05-2.22,2.92c-1,0.87-2.35,1.56-4.02,2.06c-1.67,0.5-3.72,0.76-6.14,0.76
			c-3.42,0-6.25-0.4-8.5-1.22c-2.25-0.8-4.22-1.67-5.89-2.6c-1.67-0.94-3.23-1.82-4.68-2.62c-1.45-0.82-3.06-1.22-4.88-1.22
			c-1.95,0-3.52,0.39-4.72,1.16c-1.22,0.77-2.25,1.83-3.12,3.18l-7.25,11.46c2.02,1.82,4.44,3.51,7.25,5.09
			c2.82,1.57,5.88,2.93,9.2,4.06c3.32,1.14,6.75,2.05,10.32,2.72c3.55,0.67,7.11,1.02,10.66,1.02c7.11,0,13.41-0.87,18.87-2.62
			c5.47-1.75,10.06-4.19,13.78-7.35c3.73-3.15,6.52-6.9,8.41-11.26c1.87-4.36,2.8-9.13,2.8-14.29c0-4.22-0.69-7.84-2.06-10.86
			C676.45,1153.74,674.62,1151.17,672.35,1149.07z"/>
		<path class="st1" d="M760.88,1149.07c-2.27-2.12-4.86-3.89-7.74-5.34c-2.89-1.45-5.84-2.7-8.86-3.78
			c-3.02-1.07-5.98-2.05-8.86-2.92c-2.89-0.86-5.47-1.79-7.75-2.76c-2.27-0.97-4.11-2.09-5.48-3.38c-1.37-1.27-2.06-2.88-2.06-4.82
			c0-2.69,1.06-4.78,3.18-6.3c2.1-1.5,5.14-2.26,9.1-2.26c2.75,0,5.19,0.31,7.34,0.96c2.15,0.64,4.08,1.33,5.79,2.06
			c1.7,0.74,3.29,1.43,4.78,2.06c1.47,0.64,2.95,0.96,4.42,0.96c1.42,0,2.56-0.27,3.48-0.8c0.9-0.54,1.76-1.45,2.56-2.72l7.04-10.97
			c-1.95-1.93-4.19-3.73-6.74-5.38s-5.37-3.06-8.46-4.28c-3.08-1.2-6.38-2.15-9.9-2.82c-3.52-0.66-7.17-1-10.92-1
			c-6.91,0-12.95,0.89-18.11,2.66c-5.17,1.79-9.46,4.18-12.88,7.2c-3.42,3.02-5.99,6.52-7.7,10.52c-1.72,3.99-2.56,8.2-2.56,12.63
			c0,4.76,0.7,8.81,2.1,12.18c1.42,3.35,3.26,6.18,5.54,8.5s4.88,4.22,7.8,5.74c2.92,1.5,5.88,2.79,8.9,3.86
			c3.02,1.07,5.99,2.03,8.91,2.88c2.92,0.83,5.51,1.75,7.8,2.72c2.27,0.97,4.12,2.13,5.52,3.46c1.42,1.34,2.12,3.06,2.12,5.14
			c0,1.14-0.23,2.25-0.7,3.32s-1.2,2.05-2.22,2.92c-1,0.87-2.35,1.56-4.02,2.06c-1.67,0.5-3.72,0.76-6.14,0.76
			c-3.42,0-6.25-0.4-8.5-1.22c-2.25-0.8-4.22-1.67-5.89-2.6c-1.67-0.94-3.23-1.82-4.68-2.62c-1.45-0.82-3.06-1.22-4.88-1.22
			c-1.95,0-3.52,0.39-4.72,1.16c-1.22,0.77-2.25,1.83-3.12,3.18l-7.25,11.46c2.02,1.82,4.44,3.51,7.25,5.09
			c2.82,1.57,5.88,2.93,9.2,4.06c3.32,1.14,6.75,2.05,10.32,2.72c3.55,0.67,7.11,1.02,10.66,1.02c7.11,0,13.41-0.87,18.87-2.62
			c5.47-1.75,10.06-4.19,13.78-7.35c3.73-3.15,6.52-6.9,8.41-11.26c1-2.32,1.69-4.78,2.15-7.33h25.72v-24.82h-32.1
			C761.18,1149.57,761.09,1149.26,760.88,1149.07z"/>
		<path class="st2" d="M963.91,1056.15c-0.87,0.06-1.66,0.23-2.36,0.5c-0.7,0.26-1.34,0.7-1.92,1.3c-0.56,0.6-1.12,1.42-1.66,2.42
			l-43.05,80.6c-1.14,2.15-2.22,4.39-3.22,6.74c-1.02,2.35-1.99,4.72-2.92,7.14c-0.94-2.35-1.9-4.68-2.88-7
			c-0.97-2.3-2.03-4.54-3.16-6.68l-43.47-80.8c-0.54-1-1.1-1.82-1.72-2.42c-0.6-0.6-1.26-1.04-1.96-1.3
			c-0.7-0.27-1.49-0.44-2.36-0.5c-0.87-0.07-1.92-0.11-3.12-0.11h-20.43v145.5h23.82h0.03v-93.97c0-1.82-0.04-3.78-0.14-5.88
			c-0.11-2.12-0.29-4.28-0.56-6.5l44.57,82.8c1,1.89,2.32,3.35,3.92,4.38c1.62,1.04,3.49,1.56,5.64,1.56h3.72
			c2.15,0,4.03-0.52,5.64-1.56c1.62-1.03,2.92-2.49,3.92-4.38l43.97-82.5c-0.2,2.15-0.34,4.26-0.44,6.34
			c-0.1,2.07-0.16,3.99-0.16,5.74v93.97h23.85v-145.5h-20.43C965.83,1056.04,964.79,1056.08,963.91,1056.15z"/>
		<path class="st2" d="M1086.26,1107.6c-3.29-3.52-7.3-6.27-12.02-8.24c-4.74-1.97-10.12-2.98-16.15-2.98
			c-16.77,0-31.09,5.44-42.97,16.31l4.54,7.94c0.73,1.27,1.7,2.35,2.92,3.22c1.2,0.87,2.65,1.32,4.32,1.32
			c2.02,0,3.86-0.47,5.54-1.42c1.67-0.93,3.51-1.99,5.48-3.16s4.31-2.23,7-3.18c2.68-0.93,6.04-1.4,10.06-1.4
			c5.57,0,9.82,1.67,12.73,5.01c2.92,3.35,4.38,8.5,4.38,15.47v6.08c-11.75,0-21.58,1.02-29.49,3.03
			c-7.91,2.02-14.25,4.56-19.02,7.63c-4.76,3.06-8.17,6.48-10.22,10.29c-2.05,3.81-3.06,7.65-3.06,11.56
			c0,4.65,0.73,8.71,2.22,12.22c1.47,3.49,3.53,6.42,6.18,8.79c2.65,2.35,5.82,4.12,9.51,5.29c3.68,1.17,7.71,1.77,12.06,1.77
			c3.69,0,7.05-0.31,10.07-0.92c3.02-0.6,5.87-1.5,8.54-2.72c2.69-1.2,5.29-2.69,7.8-4.48c2.52-1.77,5.09-3.83,7.7-6.18l2.22,7.34
			c0.67,2.15,1.67,3.58,3.02,4.28c1.34,0.7,3.19,1.06,5.54,1.06h11.16v-65.2c0-5.84-0.84-11.2-2.56-16.1
			C1092.04,1115.34,1089.55,1111.14,1086.26,1107.6z M1072.08,1175.05c-1.82,1.85-3.61,3.45-5.39,4.79
			c-1.77,1.36-3.62,2.5-5.52,3.42c-1.92,0.93-3.95,1.62-6.1,2.09c-2.15,0.46-4.49,0.69-7.04,0.69c-4.16,0-7.53-0.94-10.12-2.83
			c-2.58-1.89-3.88-5.04-3.88-9.43c0-2.23,0.63-4.29,1.87-6.18c1.23-1.89,3.33-3.55,6.28-4.96c2.95-1.42,6.85-2.59,11.72-3.49
			c4.86-0.92,10.92-1.37,18.17-1.37V1175.05z"/>
		<path class="st2" d="M1201.81,1107.6c-2.92-3.45-6.55-6.12-10.92-8.04c-4.35-1.92-9.36-2.88-14.98-2.88
			c-3.49,0-6.71,0.34-9.66,1.02c-2.96,0.67-5.72,1.65-8.31,2.92c-2.58,1.27-5.02,2.78-7.34,4.52s-4.51,3.69-6.6,5.84l-1.7-8.16
			c-1-3.02-3.12-4.52-6.34-4.52h-15.19v103.23h24.85v-74.66c3.35-3.35,6.91-5.99,10.66-7.94c3.76-1.95,7.78-2.92,12.08-2.92
			c5.84,0,10.22,1.72,13.13,5.18c2.92,3.45,4.38,8.33,4.38,14.64v65.7h24.85v-65.7c0-5.77-0.76-11.05-2.26-15.85
			C1206.95,1115.19,1204.73,1111.06,1201.81,1107.6z"/>
		<path class="st2" d="M1306,1107.6c-3.29-3.52-7.3-6.27-12.02-8.24c-4.74-1.97-10.12-2.98-16.15-2.98
			c-16.77,0-31.09,5.44-42.97,16.31l4.54,7.94c0.73,1.27,1.7,2.35,2.92,3.22c1.2,0.87,2.65,1.32,4.32,1.32
			c2.02,0,3.86-0.47,5.54-1.42c1.67-0.93,3.51-1.99,5.48-3.16s4.31-2.23,7-3.18c2.68-0.93,6.04-1.4,10.06-1.4
			c5.57,0,9.82,1.67,12.73,5.01c2.92,3.35,4.38,8.5,4.38,15.47v6.08c-11.75,0-21.58,1.02-29.49,3.03
			c-7.91,2.02-14.25,4.56-19.02,7.63c-4.76,3.06-8.17,6.48-10.22,10.29c-2.05,3.81-3.06,7.65-3.06,11.56
			c0,4.65,0.73,8.71,2.22,12.22c1.47,3.49,3.53,6.42,6.18,8.79c2.65,2.35,5.82,4.12,9.51,5.29c3.68,1.17,7.71,1.77,12.06,1.77
			c3.69,0,7.05-0.31,10.07-0.92c3.02-0.6,5.87-1.5,8.54-2.72c2.69-1.2,5.29-2.69,7.8-4.48c2.52-1.77,5.09-3.83,7.7-6.18l2.22,7.34
			c0.67,2.15,1.67,3.58,3.02,4.28c1.34,0.7,3.19,1.06,5.54,1.06h11.16v-65.2c0-5.84-0.84-11.2-2.56-16.1
			C1311.78,1115.34,1309.29,1111.14,1306,1107.6z M1291.82,1175.05c-1.82,1.85-3.61,3.45-5.39,4.79c-1.77,1.36-3.62,2.5-5.52,3.42
			c-1.92,0.93-3.95,1.62-6.1,2.09c-2.15,0.46-4.49,0.69-7.04,0.69c-4.16,0-7.53-0.94-10.12-2.83c-2.58-1.89-3.88-5.04-3.88-9.43
			c0-2.23,0.63-4.29,1.87-6.18c1.23-1.89,3.33-3.55,6.28-4.96c2.95-1.42,6.85-2.59,11.72-3.49c4.86-0.92,10.92-1.37,18.17-1.37
			V1175.05z"/>
		<path class="st2" d="M1388.71,1097.84c-3.89-0.9-8.06-1.36-12.48-1.36c-5.91,0-11.36,0.77-16.35,2.32
			c-4.99,1.55-9.31,3.78-12.98,6.7c-3.66,2.92-6.51,6.44-8.56,10.56c-2.05,4.12-3.06,8.74-3.06,13.84c0,6.31,1.49,11.8,4.48,16.5
			c2.98,4.71,7.1,8.46,12.32,11.27c-2.27,1.14-4.26,2.43-5.94,3.88c-1.67,1.45-3.06,2.96-4.18,4.58c-1.1,1.6-1.92,3.23-2.46,4.88
			c-0.53,1.65-0.8,3.23-0.8,4.78c0,3.75,0.77,6.81,2.32,9.16c1.53,2.35,3.58,4.22,6.14,5.62c-5.24,1.96-9.33,4.56-12.28,7.85
			c-2.96,3.29-4.44,7.34-4.44,12.18c0,3.55,0.94,6.97,2.82,10.26c1.87,3.29,4.71,6.2,8.5,8.7c3.79,2.52,8.57,4.54,14.34,6.04
			c5.78,1.52,12.59,2.27,20.43,2.27c7.91,0,14.95-1.03,21.13-3.09c6.17-2.05,11.37-4.75,15.64-8.11c4.26-3.38,7.51-7.21,9.76-11.52
			c2.25-4.31,3.38-8.74,3.38-13.32c0-4.91-0.96-8.93-2.86-12.06c-1.92-3.13-4.44-5.61-7.55-7.43c-3.12-1.82-6.65-3.15-10.62-3.98
			c-3.95-0.84-8.01-1.43-12.18-1.77c-4.15-0.33-8.21-0.5-12.18-0.5c-3.95,0-7.48-0.2-10.6-0.62c-3.12-0.4-5.64-1.09-7.55-2.07
			c-1.9-0.97-2.86-2.52-2.86-4.61c0-2.43,1.6-4.64,4.82-6.6c3.69,0.74,7.48,1.12,11.37,1.12c5.77,0,11.12-0.79,16.05-2.36
			c4.92-1.59,9.19-3.81,12.78-6.7c3.58-2.89,6.4-6.4,8.44-10.52c2.05-4.12,3.08-8.74,3.08-13.84c0-2.15-0.19-4.19-0.56-6.14
			c-0.37-1.95-0.89-3.79-1.56-5.54l9.26-1.7c1.95-0.34,3.32-0.94,4.12-1.82c0.82-0.87,1.22-2.07,1.22-3.62v-9.26h-29.69
			C1396.15,1100.08,1392.6,1098.76,1388.71,1097.84z M1361.34,1194.59c3.09,0.73,6.3,1.1,9.61,1.1s6.54,0,9.66,0
			s6.07,0.17,8.86,0.52c2.78,0.34,5.21,0.87,7.28,1.59c2.09,0.73,3.73,1.73,4.94,3.03s1.82,2.98,1.82,5.04
			c0,2.05-0.52,3.95-1.52,5.69c-1,1.75-2.6,3.26-4.78,4.52c-2.17,1.27-4.95,2.26-8.3,2.99c-3.36,0.72-7.34,1.07-11.98,1.07
			c-4.56,0-8.41-0.31-11.58-0.96c-3.15-0.63-5.71-1.53-7.7-2.66c-1.97-1.14-3.42-2.5-4.32-4.08s-1.36-3.28-1.36-5.08
			c0-2.75,0.86-5.18,2.56-7.3C1356.26,1197.96,1358.52,1196.14,1361.34,1194.59z M1393.39,1137.33c-0.77,2.09-1.92,3.86-3.42,5.34
			c-1.52,1.47-3.41,2.63-5.69,3.48c-2.28,0.83-4.96,1.26-8.04,1.26c-3.02,0-5.68-0.43-8-1.26c-2.32-0.84-4.22-2.02-5.74-3.52
			c-1.5-1.52-2.65-3.31-3.42-5.39c-0.77-2.07-1.16-4.32-1.16-6.74c0-5.09,1.53-9.13,4.58-12.12s7.63-4.48,13.74-4.48
			c6.1,0,10.67,1.49,13.74,4.48c3.05,2.99,4.58,7.03,4.58,12.12C1394.55,1132.98,1394.16,1135.26,1393.39,1137.33z"/>
		<path class="st2" d="M1519.4,1108.92c-3.95-3.99-8.67-7.03-14.14-9.11c-5.47-2.07-11.45-3.12-17.96-3.12
			c-7.71,0-14.64,1.34-20.78,4.03c-6.14,2.68-11.33,6.32-15.6,10.92c-4.26,4.59-7.53,9.99-9.82,16.2
			c-2.27,6.21-3.42,12.83-3.42,19.87c0,9.06,1.32,17.01,3.93,23.89c2.6,6.88,6.2,12.65,10.76,17.3c4.56,4.66,9.93,8.18,16.1,10.57
			c6.17,2.38,12.85,3.56,20.03,3.56c3.62,0,7.35-0.26,11.22-0.8c3.85-0.53,7.64-1.46,11.36-2.76c3.72-1.32,7.3-3.05,10.72-5.24
			c3.42-2.17,6.51-4.88,9.26-8.1l-7.24-9.06c-0.54-0.73-1.17-1.3-1.92-1.7c-0.73-0.4-1.6-0.62-2.62-0.62
			c-1.55,0-3.13,0.47-4.78,1.42s-3.55,1.97-5.74,3.12c-2.17,1.14-4.72,2.17-7.64,3.12s-6.38,1.4-10.42,1.4
			c-8.18,0-14.75-2.48-19.72-7.44s-7.81-12.75-8.56-23.35h63.8c1.13,0,2.07-0.14,2.8-0.44c0.74-0.3,1.33-0.8,1.77-1.52
			c0.43-0.7,0.73-1.67,0.9-2.92c0.16-1.23,0.24-2.79,0.24-4.68c0-7.44-1.1-14.06-3.32-19.86
			C1526.45,1117.8,1523.36,1112.91,1519.4,1108.92z M1462.96,1138.05c1.14-7.51,3.76-13.32,7.85-17.41s9.76-6.14,17-6.14
			c3.69,0,6.91,0.63,9.66,1.86c2.76,1.24,5.04,2.93,6.85,5.08c1.8,2.15,3.15,4.65,4.02,7.5c0.87,2.86,1.3,5.89,1.3,9.11H1462.96z"/>
		<path class="st2" d="M1605.32,1096.38c-6.17,0-11.73,1.85-16.7,5.54s-9.29,8.73-12.98,15.09l-1.5-12.48
			c-0.34-2.27-1.02-3.89-2.02-4.84c-1-0.93-2.79-1.4-5.34-1.4h-14.59v103.23h24.85v-64.3c2.56-5.49,5.68-9.67,9.36-12.52
			c3.69-2.85,8.13-4.28,13.29-4.28c2.88,0,5.19,0.24,6.94,0.7c1.75,0.47,3.12,0.72,4.12,0.72c1.14,0,2.05-0.26,2.72-0.76
			s1.1-1.36,1.3-2.58l3.23-18.6C1614.65,1097.56,1610.43,1096.38,1605.32,1096.38z"/>
	</g>
</g>
</svg>
