<svg xmlns="http://www.w3.org/2000/svg" width="16" height="15.999" viewBox="0 0 16 15.999">
  <g id="Groupe_349" data-name="Groupe 349" transform="translate(-221.852 -1113.324)">
    <g id="Groupe_345" data-name="Groupe 345" transform="translate(221.852 1119.61)">
      <path id="Tracé_361" data-name="Tracé 361"
        d="M227.871,1131.669H223.48a1.668,1.668,0,0,1-.888-.253,1.548,1.548,0,0,1-.739-1.312v-6.581a1.542,1.542,0,0,1,.609-1.222,1.672,1.672,0,0,1,1.019-.344h4.391a1.665,1.665,0,0,1,1.084.4,1.544,1.544,0,0,1,.543,1.169v6.581a1.529,1.529,0,0,1-.462,1.093A1.648,1.648,0,0,1,227.871,1131.669Zm-4.391-8.621a.581.581,0,0,0-.351.116.459.459,0,0,0-.184.358v6.581a.461.461,0,0,0,.228.387.573.573,0,0,0,.307.087h4.391a.56.56,0,0,0,.4-.158.442.442,0,0,0,.137-.315v-6.581a.448.448,0,0,0-.163-.34.566.566,0,0,0-.372-.134Z"
        transform="translate(-221.852 -1121.956)"  />
    </g>
    <g id="Groupe_346" data-name="Groupe 346" transform="translate(230.206 1121.677)">
      <path id="Tracé_362" data-name="Tracé 362"
        d="M239.342,1132.44h-4.391a1.627,1.627,0,0,1-1.628-1.627v-4.392a1.629,1.629,0,0,1,1.628-1.628h4.391a1.629,1.629,0,0,1,1.628,1.628v4.392a1.625,1.625,0,0,1-1.628,1.627Zm-4.391-6.554a.536.536,0,0,0-.535.535v4.392a.536.536,0,0,0,.535.535h4.391a.533.533,0,0,0,.535-.535v-4.392a.537.537,0,0,0-.535-.535Z"
        transform="translate(-233.323 -1124.794)"  />
    </g>
    <g id="Groupe_347" data-name="Groupe 347" transform="translate(221.852 1113.324)">
      <path id="Tracé_363" data-name="Tracé 363"
        d="M230.259,1118.967h-6.78a1.624,1.624,0,0,1-1.628-1.627v-2.389a1.628,1.628,0,0,1,1.628-1.628h6.78a1.627,1.627,0,0,1,1.628,1.628v2.389a1.626,1.626,0,0,1-1.628,1.627Zm-6.78-4.551a.535.535,0,0,0-.535.535v2.389a.531.531,0,0,0,.266.463.524.524,0,0,0,.269.072h6.78a.534.534,0,0,0,.535-.535v-2.389a.536.536,0,0,0-.535-.535Z"
        transform="translate(-221.852 -1113.324)"  />
    </g>
    <g id="Groupe_348" data-name="Groupe 348" transform="translate(232.465 1113.324)">
      <path id="Tracé_364" data-name="Tracé 364"
        d="M240.185,1120.97h-2.132a1.61,1.61,0,0,1-.95-.307,1.629,1.629,0,0,1-.677-1.32v-4.391a1.629,1.629,0,0,1,1.628-1.628h2.132a1.629,1.629,0,0,1,1.628,1.628v4.391a1.628,1.628,0,0,1-1.628,1.628Zm-2.132-6.554a.536.536,0,0,0-.535.535v4.391a.535.535,0,0,0,.535.535h2.132a.537.537,0,0,0,.535-.535v-4.391a.536.536,0,0,0-.535-.535Z"
        transform="translate(-236.426 -1113.324)"  />
    </g>
  </g>
</svg>