<svg xmlns="http://www.w3.org/2000/svg" width="16" height="16" viewBox="0 0 16 16">
  <g id="Groupe_276" data-name="Groupe 276" transform="translate(-19.92 -96)">
    <path id="Tracé_39" data-name="Tracé 39" d="M175.511,172.384h6.3a.636.636,0,0,0,.636-.636v-3.59a.636.636,0,0,0-.636-.636h-6.3a.636.636,0,0,0-.636.636v3.59a.637.637,0,0,0,.636.636Z" transform="translate(-154.955 -71.522)" />
    <path id="Tracé_40" data-name="Tracé 40" d="M175.511,193.311h6.3a.636.636,0,0,0,.636-.636v-8.963a.636.636,0,0,0-.636-.636h-6.3a.636.636,0,0,0-.636.636v8.963a.637.637,0,0,0,.636.636Z" transform="translate(-154.955 -81.311)" />
    <path id="Tracé_41" data-name="Tracé 41" d="M204.557,197.573h-6.3a.636.636,0,0,0-.636.636v3.59a.636.636,0,0,0,.636.636h6.3a.636.636,0,0,0,.636-.636v-3.59a.635.635,0,0,0-.636-.636Z" transform="translate(-169.272 -90.435)" />
    <path id="Tracé_42" data-name="Tracé 42" d="M204.557,167.522h-6.3a.636.636,0,0,0-.636.636v8.963a.637.637,0,0,0,.636.636h6.3a.636.636,0,0,0,.636-.636v-8.963a.636.636,0,0,0-.636-.636Z" transform="translate(-169.272 -71.522)" />
  </g>
</svg>
