<svg xmlns="http://www.w3.org/2000/svg" width="405.622" height="193.822" viewBox="0 0 405.622 193.822">
  <g id="Groupe_183" data-name="Groupe 183" transform="translate(-862.589 -1176.511)">
    <g id="Groupe_167" data-name="Groupe 167">
      <path id="Tracé_156" data-name="Tracé 156" d="M981.133,1179.309l-16.121,12.429a14.418,14.418,0,0,0-.13,1.836c0,.479.026.951.072,1.418l19.33-14.9A14.244,14.244,0,0,0,981.133,1179.309Z" fill="none" stroke="#fff080" stroke-linecap="round" stroke-linejoin="round" stroke-width="0.25"/>
      <path id="Tracé_157" data-name="Tracé 157" d="M984.284,1180.089l-19.33,14.9a14.276,14.276,0,0,0,.555,2.781l21.323-16.44A14.28,14.28,0,0,0,984.284,1180.089Z" fill="none" stroke="#fff080" stroke-linecap="round" stroke-linejoin="round" stroke-width="0.25"/>
      <path id="Tracé_158" data-name="Tracé 158" d="M986.832,1181.333l-21.323,16.44a14.216,14.216,0,0,0,1,2.437l22.427-17.291A14.437,14.437,0,0,0,986.832,1181.333Z" fill="none" stroke="#fff080" stroke-linecap="round" stroke-linejoin="round" stroke-width="0.25"/>
      <path id="Tracé_159" data-name="Tracé 159" d="M988.938,1182.919l-22.427,17.291a14.354,14.354,0,0,0,1.378,2.146l22.781-17.564A14.361,14.361,0,0,0,988.938,1182.919Z" fill="none" stroke="#fff080" stroke-linecap="round" stroke-linejoin="round" stroke-width="0.25"/>
      <path id="Tracé_160" data-name="Tracé 160" d="M992.382,1199.517l-10.681,8.235A14.4,14.4,0,0,0,992.382,1199.517Z" fill="none" stroke="#fff080" stroke-linecap="round" stroke-linejoin="round" stroke-width="0.25"/>
      <path id="Tracé_161" data-name="Tracé 161" d="M979.28,1179.176a14.424,14.424,0,0,0-2.422.22l-10.681,8.235a14.28,14.28,0,0,0-1.165,4.107l16.121-12.429A14.52,14.52,0,0,0,979.28,1179.176Z" fill="none" stroke="#fff080" stroke-linecap="round" stroke-linejoin="round" stroke-width="0.25"/>
      <path id="Tracé_162" data-name="Tracé 162" d="M966.177,1187.631l10.681-8.235A14.4,14.4,0,0,0,966.177,1187.631Z" fill="none" stroke="#fff080" stroke-linecap="round" stroke-linejoin="round" stroke-width="0.25"/>
      <path id="Tracé_163" data-name="Tracé 163" d="M993.677,1193.574c0-.479-.026-.951-.072-1.418l-19.33,14.9a14.258,14.258,0,0,0,3.151.78l16.121-12.429A14.447,14.447,0,0,0,993.677,1193.574Z" fill="none" stroke="#fff080" stroke-linecap="round" stroke-linejoin="round" stroke-width="0.25"/>
      <path id="Tracé_164" data-name="Tracé 164" d="M993.547,1195.41l-16.121,12.429a13.315,13.315,0,0,0,4.275-.087l10.681-8.235A14.29,14.29,0,0,0,993.547,1195.41Z" fill="none" stroke="#fff080" stroke-linecap="round" stroke-linejoin="round" stroke-width="0.25"/>
      <path id="Tracé_165" data-name="Tracé 165" d="M990.67,1184.792l-22.781,17.564a14.3,14.3,0,0,0,1.733,1.873l22.427-17.291A14.356,14.356,0,0,0,990.67,1184.792Z" fill="none" stroke="#fff080" stroke-linecap="round" stroke-linejoin="round" stroke-width="0.25"/>
      <path id="Tracé_166" data-name="Tracé 166" d="M992.049,1186.938l-22.427,17.291a14.431,14.431,0,0,0,2.1,1.586l21.324-16.44A14.346,14.346,0,0,0,992.049,1186.938Z" fill="none" stroke="#fff080" stroke-linecap="round" stroke-linejoin="round" stroke-width="0.25"/>
      <path id="Tracé_167" data-name="Tracé 167" d="M993.051,1189.375l-21.324,16.44a14.3,14.3,0,0,0,2.548,1.244l19.33-14.9A14.27,14.27,0,0,0,993.051,1189.375Z" fill="none" stroke="#fff080" stroke-linecap="round" stroke-linejoin="round" stroke-width="0.25"/>
    </g>
    <g id="Groupe_168" data-name="Groupe 168">
      <path id="Tracé_168" data-name="Tracé 168" d="M1187.637,1335.52l-11.1,8.562a9.98,9.98,0,0,0-.09,1.265c0,.33.018.655.05.977l13.316-10.267A9.866,9.866,0,0,0,1187.637,1335.52Z" fill="none" stroke="#fff080" stroke-linecap="round" stroke-linejoin="round" stroke-width="0.25"/>
      <path id="Tracé_169" data-name="Tracé 169" d="M1189.808,1336.057l-13.316,10.267a9.8,9.8,0,0,0,.382,1.916l14.689-11.325A9.866,9.866,0,0,0,1189.808,1336.057Z" fill="none" stroke="#fff080" stroke-linecap="round" stroke-linejoin="round" stroke-width="0.25"/>
      <path id="Tracé_170" data-name="Tracé 170" d="M1191.563,1336.915l-14.689,11.325a9.8,9.8,0,0,0,.69,1.678l15.45-11.911A9.923,9.923,0,0,0,1191.563,1336.915Z" fill="none" stroke="#fff080" stroke-linecap="round" stroke-linejoin="round" stroke-width="0.25"/>
      <path id="Tracé_171" data-name="Tracé 171" d="M1193.014,1338.007l-15.45,11.911a9.851,9.851,0,0,0,.95,1.479l15.694-12.1A10,10,0,0,0,1193.014,1338.007Z" fill="none" stroke="#fff080" stroke-linecap="round" stroke-linejoin="round" stroke-width="0.25"/>
      <path id="Tracé_172" data-name="Tracé 172" d="M1195.387,1349.441l-7.359,5.673A9.915,9.915,0,0,0,1195.387,1349.441Z" fill="none" stroke="#fff080" stroke-linecap="round" stroke-linejoin="round" stroke-width="0.25"/>
      <path id="Tracé_173" data-name="Tracé 173" d="M1186.36,1335.429a9.964,9.964,0,0,0-1.667.151l-7.359,5.673a9.826,9.826,0,0,0-.8,2.829l11.1-8.562A9.942,9.942,0,0,0,1186.36,1335.429Z" fill="none" stroke="#fff080" stroke-linecap="round" stroke-linejoin="round" stroke-width="0.25"/>
      <path id="Tracé_174" data-name="Tracé 174" d="M1177.334,1341.253l7.359-5.673A9.918,9.918,0,0,0,1177.334,1341.253Z" fill="none" stroke="#fff080" stroke-linecap="round" stroke-linejoin="round" stroke-width="0.25"/>
      <path id="Tracé_175" data-name="Tracé 175" d="M1196.279,1345.347c0-.33-.018-.655-.05-.977l-13.316,10.267a9.8,9.8,0,0,0,2.171.537l11.1-8.562A9.956,9.956,0,0,0,1196.279,1345.347Z" fill="none" stroke="#fff080" stroke-linecap="round" stroke-linejoin="round" stroke-width="0.25"/>
      <path id="Tracé_176" data-name="Tracé 176" d="M1196.189,1346.612l-11.1,8.562a9.154,9.154,0,0,0,2.944-.06l7.359-5.673A9.816,9.816,0,0,0,1196.189,1346.612Z" fill="none" stroke="#fff080" stroke-linecap="round" stroke-linejoin="round" stroke-width="0.25"/>
      <path id="Tracé_177" data-name="Tracé 177" d="M1194.208,1339.3l-15.694,12.1a9.908,9.908,0,0,0,1.193,1.29l15.45-11.911A9.929,9.929,0,0,0,1194.208,1339.3Z" fill="none" stroke="#fff080" stroke-linecap="round" stroke-linejoin="round" stroke-width="0.25"/>
      <path id="Tracé_178" data-name="Tracé 178" d="M1195.157,1340.776l-15.45,11.911a9.938,9.938,0,0,0,1.451,1.093l14.689-11.326A9.833,9.833,0,0,0,1195.157,1340.776Z" fill="none" stroke="#fff080" stroke-linecap="round" stroke-linejoin="round" stroke-width="0.25"/>
      <path id="Tracé_179" data-name="Tracé 179" d="M1195.847,1342.454l-14.689,11.326a9.874,9.874,0,0,0,1.755.857l13.316-10.267A9.793,9.793,0,0,0,1195.847,1342.454Z" fill="none" stroke="#fff080" stroke-linecap="round" stroke-linejoin="round" stroke-width="0.25"/>
    </g>
    <circle id="Ellipse_7" data-name="Ellipse 7" cx="6.718" cy="6.718" r="6.718" transform="translate(1238.331 1245.405)" fill="#fff080"/>
    <circle id="Ellipse_8" data-name="Ellipse 8" cx="3.359" cy="3.359" r="3.359" transform="translate(885.779 1304.859)" fill="#fff080"/>
    <circle id="Ellipse_9" data-name="Ellipse 9" cx="11.279" cy="11.279" r="11.279" transform="translate(979.773 1345.992)" fill="#fff080"/>
    <path id="Tracé_180" data-name="Tracé 180" d="M965.724,1262.333l-2.815-30.071,28.49,10.025Z" fill="#fff080"/>
    <path id="Tracé_181" data-name="Tracé 181" d="M1182.584,1194.485l-18.3-1.765,9.26-15.883Z" fill="#fff080"/>
    <line id="Ligne_3" data-name="Ligne 3" x1="5.176" y2="7.974" transform="translate(1256.353 1199.997)" fill="none" stroke="#fff080" stroke-linecap="round" stroke-linejoin="round" stroke-width="1"/>
    <g id="Groupe_182" data-name="Groupe 182">
      <g id="Groupe_176" data-name="Groupe 176">
        <path id="Tracé_182" data-name="Tracé 182" d="M1259.279,1258.75h-61.886a15.528,15.528,0,0,1-10.807-4.358l4.047-5.255-7.573.15a15.521,15.521,0,0,1-1.247-6.117V1240.3l-9,0,5.589-22.912a18.334,18.334,0,0,1,17.812-13.99h63.382a8.116,8.116,0,0,1,8.116,8.116v39.121a8.115,8.115,0,0,1-8.116,8.116Z" fill="none" stroke="#000" stroke-linecap="round" stroke-linejoin="round" stroke-width="1"/>
        <circle id="Ellipse_10" data-name="Ellipse 10" cx="6.834" cy="6.834" r="6.834" transform="translate(1183.062 1217.715)" fill="none" stroke="#3762f6" stroke-linecap="round" stroke-linejoin="round" stroke-width="1"/>
        <circle id="Ellipse_11" data-name="Ellipse 11" cx="6.834" cy="6.834" r="6.834" transform="translate(1159.144 1217.715)" fill="none" stroke="#3762f6" stroke-linecap="round" stroke-linejoin="round" stroke-width="1"/>
        <line id="Ligne_4" data-name="Ligne 4" x2="10.251" transform="translate(1196.73 1224.548)" fill="none" stroke="#3762f6" stroke-linecap="round" stroke-linejoin="round" stroke-width="1"/>
        <line id="Ligne_5" data-name="Ligne 5" x1="10.251" transform="translate(1172.812 1224.548)" fill="none" stroke="#3762f6" stroke-linecap="round" stroke-linejoin="round" stroke-width="1"/>
        <path id="Tracé_183" data-name="Tracé 183" d="M1192.855,1224.548a2.958,2.958,0,1,1-5.917,0" fill="none" stroke="#3762f6" stroke-linecap="round" stroke-linejoin="round" stroke-width="1"/>
        <path id="Tracé_184" data-name="Tracé 184" d="M1168.937,1224.548a2.958,2.958,0,1,1-5.917,0" fill="none" stroke="#3762f6" stroke-linecap="round" stroke-linejoin="round" stroke-width="1"/>
        <g id="Groupe_173" data-name="Groupe 173">
          <g id="Groupe_169" data-name="Groupe 169">
            <line id="Ligne_6" data-name="Ligne 6" y2="9" transform="translate(1216.53 1213.074)" fill="none" stroke="#000" stroke-linecap="round" stroke-linejoin="round" stroke-width="1"/>
            <line id="Ligne_7" data-name="Ligne 7" y2="9" transform="translate(1221.957 1213.074)" fill="none" stroke="#000" stroke-linecap="round" stroke-linejoin="round" stroke-width="1"/>
            <line id="Ligne_8" data-name="Ligne 8" x2="5.427" transform="translate(1216.53 1217.574)" fill="none" stroke="#000" stroke-linecap="round" stroke-linejoin="round" stroke-width="1"/>
          </g>
          <g id="Groupe_170" data-name="Groupe 170">
            <line id="Ligne_9" data-name="Ligne 9" x1="3.251" transform="translate(1224.792 1213.074)" fill="none" stroke="#000" stroke-linecap="round" stroke-linejoin="round" stroke-width="1"/>
            <line id="Ligne_10" data-name="Ligne 10" x2="3.251" transform="translate(1224.792 1217.574)" fill="none" stroke="#000" stroke-linecap="round" stroke-linejoin="round" stroke-width="1"/>
            <line id="Ligne_11" data-name="Ligne 11" x2="3.251" transform="translate(1224.792 1222.074)" fill="none" stroke="#000" stroke-linecap="round" stroke-linejoin="round" stroke-width="1"/>
            <line id="Ligne_12" data-name="Ligne 12" y2="9" transform="translate(1224.792 1213.074)" fill="none" stroke="#000" stroke-linecap="round" stroke-linejoin="round" stroke-width="1"/>
          </g>
          <g id="Groupe_171" data-name="Groupe 171">
            <line id="Ligne_13" data-name="Ligne 13" y2="9" transform="translate(1230.877 1213.074)" fill="none" stroke="#000" stroke-linecap="round" stroke-linejoin="round" stroke-width="1"/>
            <line id="Ligne_14" data-name="Ligne 14" x1="3.787" transform="translate(1230.877 1222.074)" fill="none" stroke="#000" stroke-linecap="round" stroke-linejoin="round" stroke-width="1"/>
          </g>
          <g id="Groupe_172" data-name="Groupe 172">
            <line id="Ligne_15" data-name="Ligne 15" y2="9" transform="translate(1237.499 1213.074)" fill="none" stroke="#000" stroke-linecap="round" stroke-linejoin="round" stroke-width="1"/>
            <line id="Ligne_16" data-name="Ligne 16" x1="3.787" transform="translate(1237.499 1222.074)" fill="none" stroke="#000" stroke-linecap="round" stroke-linejoin="round" stroke-width="1"/>
          </g>
          <ellipse id="Ellipse_12" data-name="Ellipse 12" cx="2.704" cy="4.5" rx="2.704" ry="4.5" transform="translate(1244.12 1213.074)" fill="none" stroke="#000" stroke-linecap="round" stroke-linejoin="round" stroke-width="1"/>
        </g>
        <g id="Groupe_175" data-name="Groupe 175">
          <ellipse id="Ellipse_13" data-name="Ellipse 13" cx="2.704" cy="4.5" rx="2.704" ry="4.5" transform="translate(1229.763 1226.336)" fill="none" stroke="#000" stroke-linecap="round" stroke-linejoin="round" stroke-width="1"/>
          <line id="Ligne_17" data-name="Ligne 17" x2="3.672" y2="9" transform="translate(1220.321 1226.028)" fill="none" stroke="#000" stroke-linecap="round" stroke-linejoin="round" stroke-width="1"/>
          <line id="Ligne_18" data-name="Ligne 18" x1="2.934" y2="9" transform="translate(1223.993 1226.028)" fill="none" stroke="#000" stroke-linecap="round" stroke-linejoin="round" stroke-width="1"/>
          <line id="Ligne_19" data-name="Ligne 19" x2="3.672" y2="9" transform="translate(1216.28 1226.028)" fill="none" stroke="#000" stroke-linecap="round" stroke-linejoin="round" stroke-width="1"/>
          <line id="Ligne_20" data-name="Ligne 20" x1="2.934" y2="9" transform="translate(1219.952 1226.028)" fill="none" stroke="#000" stroke-linecap="round" stroke-linejoin="round" stroke-width="1"/>
          <line id="Ligne_21" data-name="Ligne 21" y2="9" transform="translate(1239.142 1226.336)" fill="none" stroke="#000" stroke-linecap="round" stroke-linejoin="round" stroke-width="1"/>
          <line id="Ligne_22" data-name="Ligne 22" x2="2.835" y2="3.954" transform="translate(1241.036 1231.382)" fill="none" stroke="#000" stroke-linecap="round" stroke-linejoin="round" stroke-width="1"/>
          <path id="Rectangle_611" data-name="Rectangle 611" d="M0,0H2.908A2.523,2.523,0,0,1,5.431,2.523v0A2.523,2.523,0,0,1,2.908,5.046H0a0,0,0,0,1,0,0V0A0,0,0,0,1,0,0Z" transform="translate(1239.142 1226.336)" fill="none" stroke="#000" stroke-linecap="round" stroke-linejoin="round" stroke-width="1"/>
          <g id="Groupe_174" data-name="Groupe 174">
            <line id="Ligne_23" data-name="Ligne 23" y2="9" transform="translate(1248.691 1226.028)" fill="none" stroke="#000" stroke-linecap="round" stroke-linejoin="round" stroke-width="1"/>
            <line id="Ligne_24" data-name="Ligne 24" x1="3.787" transform="translate(1248.691 1235.028)" fill="none" stroke="#000" stroke-linecap="round" stroke-linejoin="round" stroke-width="1"/>
          </g>
          <path id="Rectangle_612" data-name="Rectangle 612" d="M0,0H1.094a3.89,3.89,0,0,1,3.89,3.89V5.11A3.89,3.89,0,0,1,1.094,9H0A0,0,0,0,1,0,9V0A0,0,0,0,1,0,0Z" transform="translate(1255.397 1226.028)" fill="none" stroke="#000" stroke-linecap="round" stroke-linejoin="round" stroke-width="1"/>
        </g>
      </g>
      <g id="Groupe_177" data-name="Groupe 177">
        <path id="Tracé_185" data-name="Tracé 185" d="M1196.618,1309.556a24.776,24.776,0,0,1-49.442-2.328v-34.065" fill="none" stroke="#3762f6" stroke-linecap="round" stroke-linejoin="round" stroke-width="1"/>
        <path id="Tracé_186" data-name="Tracé 186" d="M1141.257,1273.337v-2.185a1.48,1.48,0,0,1,1.48-1.48h0a1.48,1.48,0,0,1,1.48,1.48v2.185" fill="none" stroke="#3762f6" stroke-linecap="round" stroke-linejoin="round" stroke-width="1"/>
        <path id="Tracé_187" data-name="Tracé 187" d="M1138.3,1273.337v-2.185a1.48,1.48,0,0,1,1.48-1.48h0a1.479,1.479,0,0,1,1.48,1.48v2.185" fill="none" stroke="#3762f6" stroke-linecap="round" stroke-linejoin="round" stroke-width="1"/>
        <path id="Tracé_188" data-name="Tracé 188" d="M1135.338,1273.337v-2.185a1.479,1.479,0,0,1,1.48-1.48h0a1.479,1.479,0,0,1,1.479,1.48v2.185" fill="none" stroke="#3762f6" stroke-linecap="round" stroke-linejoin="round" stroke-width="1"/>
        <path id="Tracé_189" data-name="Tracé 189" d="M1144.217,1273.163v-13.326a1.48,1.48,0,0,1,1.48-1.48h0a1.48,1.48,0,0,1,1.479,1.48v13.326" fill="none" stroke="#3762f6" stroke-linecap="round" stroke-linejoin="round" stroke-width="1"/>
      </g>
      <g id="Groupe_178" data-name="Groupe 178">
        <path id="Tracé_190" data-name="Tracé 190" d="M945.266,1296.659a2.958,2.958,0,0,1,5.917,0" fill="none" stroke="#3762f6" stroke-linecap="round" stroke-linejoin="round" stroke-width="1"/>
        <path id="Tracé_191" data-name="Tracé 191" d="M943.137,1318" fill="none" stroke="#fff" stroke-linecap="round" stroke-linejoin="round" stroke-width="1"/>
        <path id="Tracé_192" data-name="Tracé 192" d="M945.326,1285.371a2.959,2.959,0,0,1-3.7,4.023" fill="none" stroke="#000" stroke-linecap="round" stroke-linejoin="round" stroke-width="1"/>
        <path id="Tracé_193" data-name="Tracé 193" d="M928.182,1332.536h9.587a15.58,15.58,0,0,0,15.58-15.58v-2.869l9,0-5.589-22.912a18.334,18.334,0,0,0-17.812-13.99H928.182a8.116,8.116,0,0,0-8.116,8.116v39.121a8.116,8.116,0,0,0,8.116,8.116Z" fill="none" stroke="#000" stroke-linecap="round" stroke-linejoin="round" stroke-width="1"/>
        <path id="Tracé_194" data-name="Tracé 194" d="M975.791,1340.906l10.7-2.864v-48.69l-18.675,5v28.965" fill="none" stroke="#000" stroke-linecap="round" stroke-linejoin="round" stroke-width="1"/>
        <path id="Tracé_195" data-name="Tracé 195" d="M963.968,1343.158l-25.825-4.35v-48.69l29.673,5v28.2" fill="none" stroke="#000" stroke-linecap="round" stroke-linejoin="round" stroke-width="1"/>
        <path id="Tracé_196" data-name="Tracé 196" d="M967.817,1294.35l15.942-6.877v2.61Z" fill="none" stroke="#000" stroke-linecap="round" stroke-linejoin="round" stroke-width="1"/>
        <path id="Tracé_197" data-name="Tracé 197" d="M966.9,1337.755V1328.8a1.48,1.48,0,0,0-1.48-1.48h0a1.48,1.48,0,0,0-1.48,1.48v8.958" fill="none" stroke="#3762f6" stroke-linecap="round" stroke-linejoin="round" stroke-width="1"/>
        <path id="Tracé_198" data-name="Tracé 198" d="M969.983,1337.929V1324.6a1.48,1.48,0,0,0-1.48-1.48h0a1.48,1.48,0,0,0-1.48,1.48v13.325" fill="none" stroke="#3762f6" stroke-linecap="round" stroke-linejoin="round" stroke-width="1"/>
        <path id="Tracé_199" data-name="Tracé 199" d="M972.943,1337.929V1324.6a1.48,1.48,0,0,0-1.48-1.48h0a1.479,1.479,0,0,0-1.48,1.48v13.325" fill="none" stroke="#3762f6" stroke-linecap="round" stroke-linejoin="round" stroke-width="1"/>
        <path id="Tracé_200" data-name="Tracé 200" d="M975.9,1337.929V1324.6a1.479,1.479,0,0,0-1.48-1.48h0a1.479,1.479,0,0,0-1.479,1.48v13.325" fill="none" stroke="#3762f6" stroke-linecap="round" stroke-linejoin="round" stroke-width="1"/>
        <path id="Tracé_201" data-name="Tracé 201" d="M975.9,1337.929a36.377,36.377,0,0,1-18.547,31.723" fill="none" stroke="#3762f6" stroke-linecap="round" stroke-linejoin="round" stroke-width="1"/>
        <line id="Ligne_25" data-name="Ligne 25" y2="5.403" transform="translate(963.942 1337.755)" fill="none" stroke="#3762f6" stroke-linecap="round" stroke-linejoin="round" stroke-width="1"/>
      </g>
      <g id="Groupe_179" data-name="Groupe 179">
        <path id="Tracé_202" data-name="Tracé 202" d="M1023.479,1296.659a2.958,2.958,0,0,1,5.917,0" fill="none" stroke="#3762f6" stroke-linecap="round" stroke-linejoin="round" stroke-width="1"/>
        <path id="Tracé_203" data-name="Tracé 203" d="M1021.35,1318" fill="none" stroke="#fff" stroke-linecap="round" stroke-linejoin="round" stroke-width="1"/>
        <path id="Tracé_204" data-name="Tracé 204" d="M1006.4,1332.536h9.587a15.58,15.58,0,0,0,15.58-15.58v-2.869l9,0-5.589-22.912a18.334,18.334,0,0,0-17.812-13.99H1006.4a8.116,8.116,0,0,0-8.116,8.116v39.121a8.116,8.116,0,0,0,8.116,8.116Z" fill="none" stroke="#000" stroke-linecap="round" stroke-linejoin="round" stroke-width="1"/>
        <path id="Tracé_205" data-name="Tracé 205" d="M1054,1340.906l10.7-2.864v-48.69l-18.675,5v28.965" fill="none" stroke="#000" stroke-linecap="round" stroke-linejoin="round" stroke-width="1"/>
        <path id="Tracé_206" data-name="Tracé 206" d="M1042.182,1343.158l-25.825-4.35v-48.69l29.673,5v28.2" fill="none" stroke="#000" stroke-linecap="round" stroke-linejoin="round" stroke-width="1"/>
        <path id="Tracé_207" data-name="Tracé 207" d="M1046.03,1294.35l15.942-6.877v2.61Z" fill="none" stroke="#000" stroke-linecap="round" stroke-linejoin="round" stroke-width="1"/>
        <path id="Tracé_208" data-name="Tracé 208" d="M1045.115,1337.755V1328.8a1.48,1.48,0,0,0-1.48-1.48h0a1.48,1.48,0,0,0-1.48,1.48v8.958" fill="none" stroke="#3762f6" stroke-linecap="round" stroke-linejoin="round" stroke-width="1"/>
        <path id="Tracé_209" data-name="Tracé 209" d="M1048.2,1337.929V1324.6a1.48,1.48,0,0,0-1.48-1.48h0a1.48,1.48,0,0,0-1.48,1.48v13.325" fill="none" stroke="#3762f6" stroke-linecap="round" stroke-linejoin="round" stroke-width="1"/>
        <path id="Tracé_210" data-name="Tracé 210" d="M1051.156,1337.929V1324.6a1.48,1.48,0,0,0-1.48-1.48h0a1.48,1.48,0,0,0-1.48,1.48v13.325" fill="none" stroke="#3762f6" stroke-linecap="round" stroke-linejoin="round" stroke-width="1"/>
        <path id="Tracé_211" data-name="Tracé 211" d="M1054.115,1337.929V1324.6a1.479,1.479,0,0,0-1.48-1.48h0a1.479,1.479,0,0,0-1.479,1.48v13.325" fill="none" stroke="#3762f6" stroke-linecap="round" stroke-linejoin="round" stroke-width="1"/>
        <path id="Tracé_212" data-name="Tracé 212" d="M1054.115,1337.929a36.377,36.377,0,0,1-18.547,31.723" fill="none" stroke="#3762f6" stroke-linecap="round" stroke-linejoin="round" stroke-width="1"/>
        <line id="Ligne_26" data-name="Ligne 26" y2="5.403" transform="translate(1042.155 1337.755)" fill="none" stroke="#3762f6" stroke-linecap="round" stroke-linejoin="round" stroke-width="1"/>
        <circle id="Ellipse_14" data-name="Ellipse 14" cx="3.113" cy="3.113" r="3.113" transform="translate(1019.421 1305.848)" fill="none" stroke="#3762f6" stroke-linecap="round" stroke-linejoin="round" stroke-width="1"/>
      </g>
      <g id="Groupe_180" data-name="Groupe 180">
        <path id="Tracé_213" data-name="Tracé 213" d="M1098.495,1296.659a2.958,2.958,0,0,1,5.917,0" fill="none" stroke="#3762f6" stroke-linecap="round" stroke-linejoin="round" stroke-width="1"/>
        <path id="Tracé_214" data-name="Tracé 214" d="M1096.366,1318" fill="none" stroke="#fff" stroke-linecap="round" stroke-linejoin="round" stroke-width="1"/>
        <path id="Tracé_215" data-name="Tracé 215" d="M1101.537,1319.891a2.959,2.959,0,0,1-4.616-2.929" fill="none" stroke="#3762f6" stroke-linecap="round" stroke-linejoin="round" stroke-width="1"/>
        <path id="Tracé_216" data-name="Tracé 216" d="M1081.41,1332.536H1091a15.579,15.579,0,0,0,15.58-15.58v-2.869l9,0-5.589-22.912a18.334,18.334,0,0,0-17.812-13.99H1081.41a8.116,8.116,0,0,0-8.116,8.116v39.121a8.116,8.116,0,0,0,8.116,8.116Z" fill="none" stroke="#000" stroke-linecap="round" stroke-linejoin="round" stroke-width="1"/>
        <path id="Tracé_217" data-name="Tracé 217" d="M1129.019,1340.906l10.7-2.864v-48.69l-18.675,5v28.965" fill="none" stroke="#000" stroke-linecap="round" stroke-linejoin="round" stroke-width="1"/>
        <path id="Tracé_218" data-name="Tracé 218" d="M1117.2,1343.158l-25.825-4.35v-48.69l29.673,5v28.2" fill="none" stroke="#000" stroke-linecap="round" stroke-linejoin="round" stroke-width="1"/>
        <path id="Tracé_219" data-name="Tracé 219" d="M1121.046,1294.35l15.942-6.877v2.61Z" fill="none" stroke="#000" stroke-linecap="round" stroke-linejoin="round" stroke-width="1"/>
        <path id="Tracé_220" data-name="Tracé 220" d="M1120.13,1337.755V1328.8a1.48,1.48,0,0,0-1.48-1.48h0a1.48,1.48,0,0,0-1.479,1.48v8.958" fill="none" stroke="#3762f6" stroke-linecap="round" stroke-linejoin="round" stroke-width="1"/>
        <path id="Tracé_221" data-name="Tracé 221" d="M1123.211,1337.929V1324.6a1.479,1.479,0,0,0-1.479-1.48h0a1.479,1.479,0,0,0-1.48,1.48v13.325" fill="none" stroke="#3762f6" stroke-linecap="round" stroke-linejoin="round" stroke-width="1"/>
        <path id="Tracé_222" data-name="Tracé 222" d="M1126.171,1337.929V1324.6a1.479,1.479,0,0,0-1.48-1.48h0a1.48,1.48,0,0,0-1.48,1.48v13.325" fill="none" stroke="#3762f6" stroke-linecap="round" stroke-linejoin="round" stroke-width="1"/>
        <path id="Tracé_223" data-name="Tracé 223" d="M1129.131,1337.929V1324.6a1.48,1.48,0,0,0-1.48-1.48h0a1.48,1.48,0,0,0-1.48,1.48v13.325" fill="none" stroke="#3762f6" stroke-linecap="round" stroke-linejoin="round" stroke-width="1"/>
        <path id="Tracé_224" data-name="Tracé 224" d="M1129.131,1337.929a36.377,36.377,0,0,1-18.547,31.723" fill="none" stroke="#3762f6" stroke-linecap="round" stroke-linejoin="round" stroke-width="1"/>
        <line id="Ligne_27" data-name="Ligne 27" y2="5.403" transform="translate(1117.171 1337.755)" fill="none" stroke="#3762f6" stroke-linecap="round" stroke-linejoin="round" stroke-width="1"/>
      </g>
      <path id="Tracé_225" data-name="Tracé 225" d="M1152.353,1213.822v-14.561a4.187,4.187,0,0,0-4.187-4.187H987.946a4.186,4.186,0,0,0-4.187,4.187v63.626a4.187,4.187,0,0,0,4.187,4.187h160.22a4.188,4.188,0,0,0,4.187-4.187v-13.813" fill="none" stroke="#000" stroke-linecap="round" stroke-linejoin="round" stroke-width="1"/>
      <circle id="Ellipse_15" data-name="Ellipse 15" cx="7.135" cy="7.135" r="7.135" transform="translate(929.833 1214.294)" fill="none" stroke="#3762f6" stroke-linecap="round" stroke-linejoin="round" stroke-width="1"/>
      <line id="Ligne_28" data-name="Ligne 28" x1="45" y2="28.529" transform="translate(863.279 1227.507)" fill="none" stroke="#fff080" stroke-linecap="round" stroke-linejoin="round" stroke-width="1"/>
      <line id="Ligne_29" data-name="Ligne 29" x1="23.574" y1="14.466" transform="translate(1064.705 1188.931)" fill="none" stroke="#fff080" stroke-linecap="round" stroke-linejoin="round" stroke-width="1"/>
      <line id="Ligne_30" data-name="Ligne 30" y1="18" transform="translate(1232.279 1311.36)" fill="none" stroke="#3762f6" stroke-linecap="round" stroke-linejoin="round" stroke-width="1"/>
      <line id="Ligne_31" data-name="Ligne 31" x1="4.772" y2="4.772" transform="translate(1232.463 1309.757)" fill="none" stroke="#3762f6" stroke-linecap="round" stroke-linejoin="round" stroke-width="1"/>
      <line id="Ligne_32" data-name="Ligne 32" x2="8.063" y2="8.063" transform="translate(1224.353 1304.946)" fill="none" stroke="#3762f6" stroke-linecap="round" stroke-linejoin="round" stroke-width="1"/>
      <ellipse id="Ellipse_16" data-name="Ellipse 16" cx="11.752" cy="13.765" rx="11.752" ry="13.765" transform="translate(1220.262 1290.875)" fill="none" stroke="#3762f6" stroke-linecap="round" stroke-linejoin="round" stroke-width="1"/>
      <line id="Ligne_33" data-name="Ligne 33" x1="3.629" y2="6.99" transform="translate(1228.384 1301.987)" fill="none" stroke="#3762f6" stroke-linecap="round" stroke-linejoin="round" stroke-width="1"/>
      <line id="Ligne_34" data-name="Ligne 34" y1="4.956" x2="0.544" transform="translate(1235.632 1306.404)" fill="none" stroke="#3762f6" stroke-linecap="round" stroke-linejoin="round" stroke-width="1"/>
      <g id="Groupe_181" data-name="Groupe 181">
        <line id="Ligne_35" data-name="Ligne 35" y1="21.544" transform="translate(1211.185 1317.529)" fill="none" stroke="#3762f6" stroke-linecap="round" stroke-linejoin="round" stroke-width="1"/>
        <path id="Tracé_226" data-name="Tracé 226" d="M1211.185,1323.761h0a9.32,9.32,0,0,1-8.768-12.478l8.768-24.339,8.769,24.339A9.32,9.32,0,0,1,1211.185,1323.761Z" fill="none" stroke="#3762f6" stroke-linecap="round" stroke-linejoin="round" stroke-width="1"/>
        <line id="Ligne_36" data-name="Ligne 36" x1="4.213" y2="4.213" transform="translate(1210.81 1315.765)" fill="none" stroke="#3762f6" stroke-linecap="round" stroke-linejoin="round" stroke-width="1"/>
        <line id="Ligne_37" data-name="Ligne 37" x2="2.897" y2="8.529" transform="translate(1211.185 1308.177)" fill="none" stroke="#3762f6" stroke-linecap="round" stroke-linejoin="round" stroke-width="1"/>
        <line id="Ligne_38" data-name="Ligne 38" x1="5.433" y1="6.118" transform="translate(1205.377 1313.859)" fill="none" stroke="#3762f6" stroke-linecap="round" stroke-linejoin="round" stroke-width="1"/>
        <line id="Ligne_39" data-name="Ligne 39" x1="1.982" y2="4.624" transform="translate(1207.101 1311.177)" fill="none" stroke="#3762f6" stroke-linecap="round" stroke-linejoin="round" stroke-width="1"/>
      </g>
      <path id="Tracé_227" data-name="Tracé 227" d="M1155.057,1249.074h-66.551a5.45,5.45,0,0,1-5.449-5.45v-25.1a5.45,5.45,0,0,1,5.449-5.449h61.1a5.45,5.45,0,0,1,5.45,5.449v21.551l8.309,9Z" fill="none" stroke="#3762f6" stroke-linecap="round" stroke-linejoin="round" stroke-width="1"/>
      <path id="Tracé_228" data-name="Tracé 228" d="M1013.333,1206.981v-11.989h12.176v15.07" fill="none" stroke="#3762f6" stroke-linecap="round" stroke-linejoin="round" stroke-width="1"/>
      <path id="Tracé_229" data-name="Tracé 229" d="M1025.509,1218.833v4.269h-12.176v-4.109" fill="none" stroke="#3762f6" stroke-linecap="round" stroke-linejoin="round" stroke-width="1"/>
      <path id="Tracé_230" data-name="Tracé 230" d="M1013.333,1223.1h12.176l-5.471,12.176Z" fill="none" stroke="#3762f6" stroke-linecap="round" stroke-linejoin="round" stroke-width="1"/>
      <line id="Ligne_40" data-name="Ligne 40" x1="4.874" transform="translate(1017.354 1230.404)" fill="none" stroke="#3762f6" stroke-linecap="round" stroke-linejoin="round" stroke-width="1"/>
      <path id="Tracé_231" data-name="Tracé 231" d="M1011.807,1209.941h8.957a1.48,1.48,0,0,0,1.48-1.48h0a1.48,1.48,0,0,0-1.48-1.48h-8.957" fill="none" stroke="#000" stroke-linecap="round" stroke-linejoin="round" stroke-width="1"/>
      <path id="Tracé_232" data-name="Tracé 232" d="M1011.632,1213.022h13.326a1.48,1.48,0,0,0,1.48-1.48h0a1.48,1.48,0,0,0-1.48-1.48h-13.326" fill="none" stroke="#000" stroke-linecap="round" stroke-linejoin="round" stroke-width="1"/>
      <path id="Tracé_233" data-name="Tracé 233" d="M1011.632,1215.982h13.326a1.481,1.481,0,0,0,1.48-1.48h0a1.48,1.48,0,0,0-1.48-1.48h-13.326" fill="none" stroke="#000" stroke-linecap="round" stroke-linejoin="round" stroke-width="1"/>
      <path id="Tracé_234" data-name="Tracé 234" d="M1011.632,1218.941h13.326a1.48,1.48,0,0,0,1.48-1.48h0a1.48,1.48,0,0,0-1.48-1.479h-13.326" fill="none" stroke="#000" stroke-linecap="round" stroke-linejoin="round" stroke-width="1"/>
      <line id="Ligne_41" data-name="Ligne 41" y2="27" transform="translate(996.702 1177.011)" fill="none" stroke="#000" stroke-linecap="round" stroke-linejoin="round" stroke-width="1"/>
      <path id="Tracé_235" data-name="Tracé 235" d="M1011.632,1218.941a14.93,14.93,0,0,1-14.93-14.93" fill="none" stroke="#000" stroke-linecap="round" stroke-linejoin="round" stroke-width="1"/>
    </g>
  </g>
</svg>
