<svg xmlns="http://www.w3.org/2000/svg" width="35" height="29.819" viewBox="0 0 35 29.819">
  <g id="Groupe_350" data-name="Groupe 350" transform="translate(-227.597 -1153.078)">
    <path id="Tracé_365" data-name="Tracé 365" d="M261.534,1171a3.6,3.6,0,0,0-2.563-1.063h-1.84v-7.784a5.016,5.016,0,0,0-2.565-4.38l-7.453-4.177a4.188,4.188,0,0,0-4.033,0l-7.453,4.177a5.023,5.023,0,0,0-2.566,4.38v7.784h-1.839a3.627,3.627,0,0,0-3.625,3.625v9.335h35v-9.335A3.594,3.594,0,0,0,261.534,1171Zm-28.473,10.046h-3.613v-7.484a1.775,1.775,0,0,1,1.774-1.774h1.839Zm9.521,0v-5.967a1.346,1.346,0,0,1,1.349-1.348h2.332a1.35,1.35,0,0,1,1.349,1.348v5.967Zm12.7,0h-5.816v-5.967a3.2,3.2,0,0,0-3.2-3.2h-2.332a3.2,3.2,0,0,0-3.2,3.2v5.967h-5.818v-18.893a3.171,3.171,0,0,1,1.619-2.765l7.453-4.176a2.3,2.3,0,0,1,2.223,0l7.452,4.176a3.163,3.163,0,0,1,1.619,2.765v18.893Zm5.466,0h-3.614v-9.258h1.84a1.775,1.775,0,0,1,1.774,1.774Z" transform="translate(0 0)" fill="#3762f6"/>
    <path id="Tracé_366" data-name="Tracé 366" d="M242.6,1157.062a4.366,4.366,0,1,0,4.367,4.366A4.371,4.371,0,0,0,242.6,1157.062Zm0,6.88a2.514,2.514,0,1,1,2.516-2.514A2.517,2.517,0,0,1,242.6,1163.942Z" transform="translate(2.493 0.934)" fill="#3762f6"/>
  </g>
</svg>
