<svg xmlns="http://www.w3.org/2000/svg" width="30" height="35.52" viewBox="0 0 30 35.52">
  <g id="Groupe_351" data-name="Groupe 351" transform="translate(-227.347 -1186.735)">
    <path id="Tracé_367" data-name="Tracé 367" d="M252.392,1186.735H232.3a4.961,4.961,0,0,0-4.955,4.955v20.09a4.961,4.961,0,0,0,4.955,4.955h10.856v5.52l4.793-4.12,4.792,4.12V1216.7a4.947,4.947,0,0,0,4.6-4.92v-20.09A4.961,4.961,0,0,0,252.392,1186.735Zm-1.728,30.99-2.713-2.332-2.714,2.332v-8.4a2.713,2.713,0,1,1,5.426,0Zm4.6-5.945a2.87,2.87,0,0,1-2.524,2.84v-5.3a4.792,4.792,0,1,0-9.585,0v5.33H232.3a2.879,2.879,0,0,1-2.876-2.876v-20.09a2.879,2.879,0,0,1,2.876-2.876h20.09a2.879,2.879,0,0,1,2.876,2.876Z" transform="translate(0 0)" fill="#3762f6"/>
    <path id="Tracé_368" data-name="Tracé 368" d="M251.528,1194.074H232.814a1.04,1.04,0,1,0,0,2.079h18.714a1.04,1.04,0,1,0,0-2.079Z" transform="translate(0.176 0.291)" fill="#3762f6"/>
    <path id="Tracé_369" data-name="Tracé 369" d="M242.171,1199.088h-9.357a1.04,1.04,0,1,0,0,2.079h9.357a1.04,1.04,0,1,0,0-2.079Z" transform="translate(0.176 0.49)" fill="#3762f6"/>
  </g>
</svg>
