<svg id="Groupe_352" data-name="Groupe 352" xmlns="http://www.w3.org/2000/svg" width="24.333" height="24.208" viewBox="0 0 24.333 24.208">
  <path id="Tracé_373" data-name="Tracé 373" d="M21.4,0H2.942A2.94,2.94,0,0,0,0,2.942V20.013a4.2,4.2,0,0,0,4.2,4.2H20.137a4.2,4.2,0,0,0,4.2-4.2V2.942A2.924,2.924,0,0,0,21.4,0Zm-.373,2.072a1.147,1.147,0,0,1,1.233,1.036V5.563H2.072V3.108A1.154,1.154,0,0,1,3.3,2.072ZM4.806,22.136a2.59,2.59,0,0,1-2.735-2.393V7.634h20.2v7.116a1.634,1.634,0,0,1-1.2,1.492L16.988,17.6l-.466,3.139a1.792,1.792,0,0,1-1.854,1.4Zm15.341,0H18.21a3.622,3.622,0,0,0,.373-1.1l.28-1.875,2.869-.953a5.1,5.1,0,0,0,.549-.228v2.03A2.142,2.142,0,0,1,20.148,22.136Z" fill="#0049c9"/>
  <path id="Tracé_374" data-name="Tracé 374" d="M7.463,9.53H5.536a1.059,1.059,0,0,0-.86.456,1.087,1.087,0,0,0-.176.57v1.916A1.026,1.026,0,0,0,5.526,13.5H7.442a1.05,1.05,0,0,0,.787-.363,1,1,0,0,0,.238-.663V10.556a.993.993,0,0,0-.29-.715A.958.958,0,0,0,7.463,9.53Z" transform="translate(0.161 0.342)" fill="#0049c9"/>
  <path id="Tracé_375" data-name="Tracé 375" d="M7.463,14.47H5.536A1.036,1.036,0,0,0,4.5,15.5v1.916a1.026,1.026,0,0,0,1.026,1.026H7.442a1.026,1.026,0,0,0,1.026-1.026V15.5a1.037,1.037,0,0,0-.29-.715A.958.958,0,0,0,7.463,14.47Z" transform="translate(0.161 0.519)" fill="#0049c9"/>
  <path id="Tracé_376" data-name="Tracé 376" d="M12.452,9.53H10.536a1.02,1.02,0,0,0-.653.228,1.039,1.039,0,0,0-.383.8v1.916A1.026,1.026,0,0,0,10.526,13.5h1.916a1.021,1.021,0,0,0,.818-.4,1,1,0,0,0,.207-.622V10.556a1.018,1.018,0,0,0-.29-.715A.961.961,0,0,0,12.452,9.53Z" transform="translate(0.341 0.342)" fill="#0049c9"/>
</svg>
