<svg xmlns="http://www.w3.org/2000/svg" width="216.197" height="44.903" viewBox="0 0 216.197 44.903">
  <g id="Groupe_289" data-name="Groupe 289" transform="translate(-37 -15)">
    <g id="Groupe_286" data-name="Groupe 286" transform="translate(37 15)">
      <path id="Tracé_289" data-name="Tracé 289" d="M202.853,965.42A4.787,4.787,0,0,1,206.8,967.5l12.115,17.667a4.76,4.76,0,0,1,0,5.413L206.8,1008.245a4.788,4.788,0,0,1-7.893,0l-12.114-17.667a4.763,4.763,0,0,1,0-5.413L198.906,967.5A4.788,4.788,0,0,1,202.853,965.42Zm.973,4.118a1.18,1.18,0,0,0-1.946,0L189.766,987.2a1.183,1.183,0,0,0,0,1.337h0a3.8,3.8,0,0,0,4.6,1.355l8.063-3.379a1.379,1.379,0,0,1,1.874,1.6l-3.27,13.491a5.745,5.745,0,0,0,.846,4.6h0a1.18,1.18,0,0,0,1.946,0l12.115-17.667a1.182,1.182,0,0,0,0-1.334Z" transform="translate(-185.948 -965.42)" fill="#3762f6"/>
    </g>
    <g id="Groupe_287" data-name="Groupe 287" transform="translate(86.892 24.978)">
      <path id="Tracé_290" data-name="Tracé 290" d="M221.147,975.25a4.72,4.72,0,0,1,1.659-1.183,5.4,5.4,0,0,1,2.136-.413,5.888,5.888,0,0,1,1.176.1A5.252,5.252,0,0,1,227,974a3.814,3.814,0,0,1,.649.317c.181.115.35.221.5.318s.3.179.434.248a.963.963,0,0,0,.432.1.853.853,0,0,0,.533-.146,1.9,1.9,0,0,0,.332-.324l1.448-1.945a7.023,7.023,0,0,0-1.195-1,8.015,8.015,0,0,0-1.474-.775,9.526,9.526,0,0,0-1.723-.508,9.915,9.915,0,0,0-1.965-.186,10.69,10.69,0,0,0-3.929.7,8.988,8.988,0,0,0-3.058,1.958,8.89,8.89,0,0,0-1.99,2.994,9.952,9.952,0,0,0-.712,3.81,11.085,11.085,0,0,0,.623,3.769,8.724,8.724,0,0,0,1.787,3,8.17,8.17,0,0,0,2.835,1.983,9.489,9.489,0,0,0,3.782.719,9.806,9.806,0,0,0,3.986-.745,7.068,7.068,0,0,0,2.8-2.205l-1.7-1.791a.832.832,0,0,0-.6-.256.844.844,0,0,0-.368.083,1.473,1.473,0,0,0-.332.21,5.136,5.136,0,0,1-.756.552,4.189,4.189,0,0,1-.789.362,4.344,4.344,0,0,1-.9.2,9.187,9.187,0,0,1-1.069.059,4.657,4.657,0,0,1-1.906-.394,4.48,4.48,0,0,1-1.558-1.152,5.537,5.537,0,0,1-1.055-1.863,7.588,7.588,0,0,1-.388-2.529,7.293,7.293,0,0,1,.388-2.456A5.461,5.461,0,0,1,221.147,975.25Z" transform="translate(-215.279 -969.802)" fill="#3762f6"/>
      <rect id="Rectangle_631" data-name="Rectangle 631" width="3.942" height="19.034" transform="translate(17.901 0)" fill="#3762f6"/>
      <path id="Tracé_291" data-name="Tracé 291" d="M244.123,975.626a4.692,4.692,0,0,0-1.627-1.081,5.774,5.774,0,0,0-2.156-.386,9.3,9.3,0,0,0-3.123.516,8,8,0,0,0-2.649,1.569l.712,1.232a1.44,1.44,0,0,0,.45.49,1.181,1.181,0,0,0,.693.2,1.869,1.869,0,0,0,.789-.151c.221-.1.447-.217.68-.343a5.093,5.093,0,0,1,.794-.343,3.594,3.594,0,0,1,1.144-.151,1.743,1.743,0,0,1,1.355.518,2.46,2.46,0,0,1,.477,1.687v.566a14.474,14.474,0,0,0-3.75.407,7.852,7.852,0,0,0-2.364,1.015,3.563,3.563,0,0,0-1.234,1.347,3.3,3.3,0,0,0-.356,1.44,4.156,4.156,0,0,0,.279,1.576,3.075,3.075,0,0,0,.8,1.142,3.431,3.431,0,0,0,1.252.695,5.388,5.388,0,0,0,1.641.236,6.433,6.433,0,0,0,1.226-.108,4.677,4.677,0,0,0,1.043-.332,6.081,6.081,0,0,0,.947-.541q.456-.317.953-.738l.281.726a1.178,1.178,0,0,0,.475.636,1.851,1.851,0,0,0,.846.153H245.5v-8.24a5.934,5.934,0,0,0-.356-2.085A4.76,4.76,0,0,0,244.123,975.626Zm-2.461,8.437a4.063,4.063,0,0,1-1.157.864,3.11,3.11,0,0,1-1.334.268,1.785,1.785,0,0,1-1.081-.277,1.112,1.112,0,0,1-.369-.954,1.266,1.266,0,0,1,.172-.642,1.487,1.487,0,0,1,.616-.526,4.671,4.671,0,0,1,1.208-.382,10.045,10.045,0,0,1,1.945-.156Z" transform="translate(-209.57 -968.564)" fill="#3762f6"/>
      <path id="Tracé_292" data-name="Tracé 292" d="M253.307,980.955a4.19,4.19,0,0,0-.978-.674,9.984,9.984,0,0,0-1.119-.478c-.381-.136-.756-.258-1.119-.368a8.932,8.932,0,0,1-.981-.35,2.375,2.375,0,0,1-.692-.426.8.8,0,0,1-.261-.61.922.922,0,0,1,.4-.8,1.957,1.957,0,0,1,1.15-.286,3.194,3.194,0,0,1,.927.122,6.794,6.794,0,0,1,.732.26c.215.094.415.18.6.26a1.375,1.375,0,0,0,.559.121.873.873,0,0,0,.44-.1,1.04,1.04,0,0,0,.324-.345l.889-1.387a5.233,5.233,0,0,0-.851-.679,5.948,5.948,0,0,0-1.069-.541,6.971,6.971,0,0,0-1.251-.356,7.468,7.468,0,0,0-1.38-.127,7.075,7.075,0,0,0-2.289.335,4.8,4.8,0,0,0-1.627.91,3.69,3.69,0,0,0-.973,1.329,4.327,4.327,0,0,0-.059,3.135,3.443,3.443,0,0,0,.7,1.074,3.913,3.913,0,0,0,.986.725,9.311,9.311,0,0,0,1.124.488q.574.2,1.127.363a8.614,8.614,0,0,1,.986.343,2.37,2.37,0,0,1,.7.439.854.854,0,0,1,.266.649,1.009,1.009,0,0,1-.368.787,1.359,1.359,0,0,1-.508.261,2.759,2.759,0,0,1-.776.1,3.2,3.2,0,0,1-1.075-.153,5.074,5.074,0,0,1-.744-.329c-.212-.12-.409-.23-.591-.332a1.232,1.232,0,0,0-.618-.154,1.091,1.091,0,0,0-.6.147,1.3,1.3,0,0,0-.393.4l-.918,1.448a5.1,5.1,0,0,0,.918.644,6.989,6.989,0,0,0,1.162.514,9.375,9.375,0,0,0,1.3.344,7.231,7.231,0,0,0,1.346.128,7.85,7.85,0,0,0,2.385-.33,5,5,0,0,0,1.74-.93,3.828,3.828,0,0,0,1.064-1.423,4.538,4.538,0,0,0,.354-1.807,3.3,3.3,0,0,0-.26-1.372A3,3,0,0,0,253.307,980.955Z" transform="translate(-206.505 -968.552)" fill="#3762f6"/>
      <path id="Tracé_293" data-name="Tracé 293" d="M261.877,980.955a4.19,4.19,0,0,0-.978-.674,9.9,9.9,0,0,0-1.12-.478c-.381-.136-.756-.258-1.119-.368a8.809,8.809,0,0,1-.979-.35,2.366,2.366,0,0,1-.693-.426.8.8,0,0,1-.26-.61.921.921,0,0,1,.4-.8,1.96,1.96,0,0,1,1.15-.286,3.182,3.182,0,0,1,.927.122,6.793,6.793,0,0,1,.732.26c.215.094.417.18.6.26a1.366,1.366,0,0,0,.559.121.864.864,0,0,0,.439-.1,1.028,1.028,0,0,0,.324-.345l.889-1.387a5.174,5.174,0,0,0-.851-.679,5.892,5.892,0,0,0-1.068-.541,7.017,7.017,0,0,0-1.252-.356,7.444,7.444,0,0,0-1.379-.127,7.07,7.07,0,0,0-2.289.335,4.8,4.8,0,0,0-1.628.91,3.689,3.689,0,0,0-.973,1.329,4.318,4.318,0,0,0-.057,3.135,3.421,3.421,0,0,0,.7,1.074,3.884,3.884,0,0,0,.984.725,9.327,9.327,0,0,0,1.125.488q.572.2,1.127.363a8.581,8.581,0,0,1,.984.343,2.35,2.35,0,0,1,.7.439.855.855,0,0,1,.268.649,1.016,1.016,0,0,1-.37.787,1.357,1.357,0,0,1-.508.261,2.759,2.759,0,0,1-.776.1,3.182,3.182,0,0,1-1.073-.153,5.03,5.03,0,0,1-.746-.329c-.212-.12-.409-.23-.591-.332a1.227,1.227,0,0,0-.616-.154,1.088,1.088,0,0,0-.6.147,1.285,1.285,0,0,0-.394.4l-.917,1.448a5.046,5.046,0,0,0,.917.644,7.039,7.039,0,0,0,1.162.514,9.423,9.423,0,0,0,1.3.344,7.234,7.234,0,0,0,1.347.128,7.842,7.842,0,0,0,2.384-.33,5.008,5.008,0,0,0,1.742-.93,3.839,3.839,0,0,0,1.063-1.423,4.275,4.275,0,0,0,.272-.926H266v-3.138H261.94C261.915,981.019,261.9,980.98,261.877,980.955Z" transform="translate(-203.886 -968.552)" fill="#3762f6"/>
      <path id="Tracé_294" data-name="Tracé 294" d="M283.317,970.383a.993.993,0,0,0-.3.064.624.624,0,0,0-.242.164,1.519,1.519,0,0,0-.21.306L277.125,981.1q-.217.407-.407.853t-.368.9c-.12-.3-.24-.591-.363-.884s-.257-.573-.4-.845l-5.493-10.21a1.228,1.228,0,0,0-.217-.306.676.676,0,0,0-.248-.164.985.985,0,0,0-.3-.064c-.111-.009-.243-.014-.394-.014h-2.582v18.387h3.015V976.88c0-.23-.005-.478-.018-.743s-.037-.541-.071-.821l5.633,10.463a1.453,1.453,0,0,0,.495.553,1.284,1.284,0,0,0,.713.2h.47a1.278,1.278,0,0,0,.713-.2,1.441,1.441,0,0,0,.495-.553l5.557-10.426c-.026.272-.043.539-.056.8s-.02.5-.02.724v11.876h3.013V970.369h-2.581C283.558,970.369,283.426,970.374,283.317,970.383Z" transform="translate(-199.669 -969.722)" fill="#08102b"/>
      <path id="Tracé_295" data-name="Tracé 295" d="M293.434,975.692a4.324,4.324,0,0,0-1.518-1.042,5.258,5.258,0,0,0-2.041-.376,7.759,7.759,0,0,0-5.43,2.062l.573,1a1.278,1.278,0,0,0,.37.406.9.9,0,0,0,.546.167,1.406,1.406,0,0,0,.7-.179c.212-.118.443-.252.692-.4a4.972,4.972,0,0,1,.884-.4,3.924,3.924,0,0,1,1.272-.178,2.022,2.022,0,0,1,1.609.633,2.914,2.914,0,0,1,.553,1.954v.769a15.37,15.37,0,0,0-3.726.383,8.257,8.257,0,0,0-2.4.963,3.66,3.66,0,0,0-1.29,1.3,3.053,3.053,0,0,0-.388,1.461,3.928,3.928,0,0,0,.281,1.545,3.067,3.067,0,0,0,.781,1.11,3.285,3.285,0,0,0,1.2.668,4.989,4.989,0,0,0,1.525.224,6.463,6.463,0,0,0,1.273-.116,4.869,4.869,0,0,0,1.078-.344,5.589,5.589,0,0,0,.986-.565,10.459,10.459,0,0,0,.973-.781l.281.927a.858.858,0,0,0,.381.541,1.526,1.526,0,0,0,.7.134h1.41v-8.24a6.109,6.109,0,0,0-.324-2.034A4.47,4.47,0,0,0,293.434,975.692Zm-1.791,8.523a6.118,6.118,0,0,1-.682.606,3.981,3.981,0,0,1-.7.432,3.408,3.408,0,0,1-.769.264,4.215,4.215,0,0,1-.891.087,2.123,2.123,0,0,1-1.278-.358,1.574,1.574,0,0,1-.253-1.973,1.9,1.9,0,0,1,.794-.628,6,6,0,0,1,1.481-.441,12.778,12.778,0,0,1,2.3-.174Z" transform="translate(-194.326 -968.528)" fill="#08102b"/>
      <path id="Tracé_296" data-name="Tracé 296" d="M304.768,975.683a3.737,3.737,0,0,0-1.379-1.016,4.651,4.651,0,0,0-1.893-.364,5.49,5.49,0,0,0-1.221.129,4.732,4.732,0,0,0-1.05.368,5.768,5.768,0,0,0-.928.572,7.23,7.23,0,0,0-.833.738l-.215-1.032a.77.77,0,0,0-.8-.57h-1.919v13.046h3.14v-9.436a5.466,5.466,0,0,1,1.347-1,3.262,3.262,0,0,1,1.526-.37,2.049,2.049,0,0,1,1.659.655,2.783,2.783,0,0,1,.554,1.849v8.3h3.14v-8.3a6.658,6.658,0,0,0-.286-2A4.475,4.475,0,0,0,304.768,975.683Z" transform="translate(-191.058 -968.519)" fill="#08102b"/>
      <path id="Tracé_297" data-name="Tracé 297" d="M314.7,975.692a4.336,4.336,0,0,0-1.518-1.042,5.265,5.265,0,0,0-2.042-.376,7.762,7.762,0,0,0-5.43,2.062l.573,1a1.276,1.276,0,0,0,.37.406.9.9,0,0,0,.546.167,1.407,1.407,0,0,0,.7-.179c.211-.118.443-.252.692-.4a4.988,4.988,0,0,1,.885-.4,3.915,3.915,0,0,1,1.27-.178,2.027,2.027,0,0,1,1.61.633,2.921,2.921,0,0,1,.552,1.954v.769a15.376,15.376,0,0,0-3.726.383,8.248,8.248,0,0,0-2.4.963,3.664,3.664,0,0,0-1.291,1.3,3.052,3.052,0,0,0-.386,1.461,3.93,3.93,0,0,0,.279,1.545,3.056,3.056,0,0,0,.782,1.11,3.275,3.275,0,0,0,1.2.668,4.974,4.974,0,0,0,1.524.224,6.453,6.453,0,0,0,1.273-.116,4.879,4.879,0,0,0,1.08-.344,5.634,5.634,0,0,0,.984-.565,10.467,10.467,0,0,0,.973-.781l.281.927a.858.858,0,0,0,.381.541,1.526,1.526,0,0,0,.7.134h1.41v-8.24a6.109,6.109,0,0,0-.322-2.034A4.511,4.511,0,0,0,314.7,975.692Zm-1.793,8.523a5.908,5.908,0,0,1-.682.606,3.978,3.978,0,0,1-.7.432,3.421,3.421,0,0,1-.77.264,4.21,4.21,0,0,1-.889.087,2.127,2.127,0,0,1-1.28-.358,1.572,1.572,0,0,1-.252-1.973,1.89,1.89,0,0,1,.794-.628,6,6,0,0,1,1.481-.441,12.761,12.761,0,0,1,2.3-.174Z" transform="translate(-187.826 -968.528)" fill="#08102b"/>
      <path id="Tracé_298" data-name="Tracé 298" d="M322.185,974.456a7.388,7.388,0,0,0-3.644.12,4.982,4.982,0,0,0-1.64.846,3.937,3.937,0,0,0-1.081,1.334,3.887,3.887,0,0,0-.386,1.75A3.8,3.8,0,0,0,316,980.59a4.109,4.109,0,0,0,1.556,1.426,3.6,3.6,0,0,0-.749.49,3.111,3.111,0,0,0-.529.578,2.488,2.488,0,0,0-.311.616,1.983,1.983,0,0,0-.1.6,2.067,2.067,0,0,0,.292,1.157,2.12,2.12,0,0,0,.776.71,3.832,3.832,0,0,0-1.551.993,2.208,2.208,0,0,0-.56,1.538,2.586,2.586,0,0,0,.355,1.3,3.283,3.283,0,0,0,1.075,1.1,5.982,5.982,0,0,0,1.812.762,10.222,10.222,0,0,0,2.581.289,8.456,8.456,0,0,0,2.671-.39,6.442,6.442,0,0,0,1.975-1.026,4.552,4.552,0,0,0,1.234-1.454,3.608,3.608,0,0,0,.426-1.684,2.9,2.9,0,0,0-.36-1.524,2.708,2.708,0,0,0-.956-.939,4.455,4.455,0,0,0-1.341-.5,12.2,12.2,0,0,0-1.539-.225c-.524-.04-1.038-.063-1.538-.063a10.059,10.059,0,0,1-1.34-.078,2.92,2.92,0,0,1-.956-.261.616.616,0,0,1-.362-.582,1.031,1.031,0,0,1,.61-.834,7.255,7.255,0,0,0,1.438.141,6.665,6.665,0,0,0,2.029-.3,5.032,5.032,0,0,0,1.615-.846,3.953,3.953,0,0,0,1.067-1.329,3.882,3.882,0,0,0,.388-1.748,4.111,4.111,0,0,0-.07-.775,4.054,4.054,0,0,0-.2-.7l1.17-.215a.907.907,0,0,0,.521-.23.642.642,0,0,0,.154-.457v-1.17h-3.752A5.38,5.38,0,0,0,322.185,974.456Zm-3.46,12.226a5.253,5.253,0,0,0,1.216.14h1.221a9.246,9.246,0,0,1,1.119.064,4.641,4.641,0,0,1,.92.2,1.513,1.513,0,0,1,.624.384.9.9,0,0,1,.23.636,1.425,1.425,0,0,1-.192.719,1.6,1.6,0,0,1-.6.572,3.583,3.583,0,0,1-1.048.377,7.279,7.279,0,0,1-1.513.136,7.385,7.385,0,0,1-1.462-.121,3.273,3.273,0,0,1-.973-.336,1.446,1.446,0,0,1-.547-.516,1.275,1.275,0,0,1-.171-.641,1.432,1.432,0,0,1,.324-.923A2.838,2.838,0,0,1,318.726,986.682Zm4.05-7.236a1.791,1.791,0,0,1-.431.674,2.02,2.02,0,0,1-.721.44,3.306,3.306,0,0,1-2.026,0,1.961,1.961,0,0,1-.725-.445,1.866,1.866,0,0,1-.432-.682,2.416,2.416,0,0,1-.148-.851,2.046,2.046,0,0,1,.58-1.531,2.941,2.941,0,0,1,3.472,0,2.051,2.051,0,0,1,.578,1.531A2.448,2.448,0,0,1,322.776,979.447Z" transform="translate(-184.855 -968.525)" fill="#08102b"/>
      <path id="Tracé_299" data-name="Tracé 299" d="M335.528,975.849a4.981,4.981,0,0,0-1.786-1.151,6.335,6.335,0,0,0-2.269-.394,6.483,6.483,0,0,0-2.626.51,5.836,5.836,0,0,0-1.972,1.38,6.052,6.052,0,0,0-1.24,2.046,7.248,7.248,0,0,0-.432,2.512,8.465,8.465,0,0,0,.5,3.019,6.2,6.2,0,0,0,1.36,2.187,5.677,5.677,0,0,0,2.034,1.336,6.971,6.971,0,0,0,2.53.45,10.079,10.079,0,0,0,1.418-.1,7.346,7.346,0,0,0,1.436-.349,6.525,6.525,0,0,0,1.354-.662,5.188,5.188,0,0,0,1.17-1.024l-.915-1.144a.741.741,0,0,0-.242-.215.681.681,0,0,0-.332-.078,1.2,1.2,0,0,0-.6.18c-.209.119-.449.249-.726.393a6.067,6.067,0,0,1-.965.394,4.27,4.27,0,0,1-1.316.178,3.365,3.365,0,0,1-2.492-.94,4.5,4.5,0,0,1-1.081-2.951h8.062a.951.951,0,0,0,.355-.056.461.461,0,0,0,.223-.192.963.963,0,0,0,.115-.368,4.846,4.846,0,0,0,.03-.591,7.006,7.006,0,0,0-.419-2.509A5.234,5.234,0,0,0,335.528,975.849Zm-7.133,3.682a3.825,3.825,0,0,1,.992-2.2,2.9,2.9,0,0,1,2.148-.776,2.946,2.946,0,0,1,1.221.235,2.4,2.4,0,0,1,.866.641,2.654,2.654,0,0,1,.508.948,3.9,3.9,0,0,1,.164,1.152Z" transform="translate(-181.683 -968.519)" fill="#08102b"/>
      <path id="Tracé_300" data-name="Tracé 300" d="M343,974.274a3.45,3.45,0,0,0-2.11.7,6.214,6.214,0,0,0-1.64,1.908l-.191-1.576a1.033,1.033,0,0,0-.255-.611,1,1,0,0,0-.675-.178h-1.844v13.046h3.14v-8.126a4.194,4.194,0,0,1,1.183-1.582,2.676,2.676,0,0,1,1.68-.541,3.59,3.59,0,0,1,.876.089,2.119,2.119,0,0,0,.521.09.564.564,0,0,0,.343-.1.485.485,0,0,0,.164-.325l.409-2.351A2.723,2.723,0,0,0,343,974.274Z" transform="translate(-178.296 -968.528)" fill="#08102b"/>
    </g>
  </g>
</svg>
