<?xml version="1.0" standalone="no"?>
<!DOCTYPE svg PUBLIC "-//W3C//DTD SVG 20010904//EN"
 "http://www.w3.org/TR/2001/REC-SVG-20010904/DTD/svg10.dtd">
<svg version="1.0" xmlns="http://www.w3.org/2000/svg"
 width="925.000000pt" height="172.000000pt" viewBox="0 0 925.000000 172.000000"
 preserveAspectRatio="xMidYMid meet">
<metadata>
Created by potrace 1.16, written by Peter Selinger 2001-2019
</metadata>
<g transform="translate(0.000000,172.000000) scale(0.100000,-0.100000)"
fill="#000000" stroke="none">
<path d="M715 1616 c-46 -21 -66 -47 -291 -376 l-209 -305 0 -65 0 -65 217
-316 c120 -174 231 -328 248 -343 53 -44 142 -47 198 -8 37 27 452 635 470
689 12 37 12 49 0 86 -18 55 -434 663 -472 690 -36 26 -119 33 -161 13z m292
-418 c135 -198 208 -312 208 -328 -1 -35 -412 -632 -433 -628 -24 5 -53 51
-59 94 -3 27 13 113 57 291 66 276 67 293 10 293 -16 0 -93 -27 -171 -60 -78
-33 -156 -60 -174 -60 -36 0 -98 37 -103 62 -3 14 362 561 411 616 11 12 26
22 33 22 7 0 106 -136 221 -302z" fill="#3762F6"/>
<path d="M2620 970 l0 -410 90 0 90 0 0 410 0 410 -90 0 -90 0 0 -410z" fill="#3762F6"/>
<path d="M2172 1359 c-205 -40 -336 -220 -319 -440 11 -136 68 -245 164 -308
72 -48 139 -64 252 -59 111 4 181 31 241 93 l34 35 -44 45 c-24 25 -52 45 -62
45 -10 0 -37 -12 -59 -27 -81 -53 -205 -39 -267 32 -65 73 -81 220 -34 312 60
116 203 153 318 82 50 -31 69 -25 115 36 l41 55 -23 20 c-85 73 -229 105 -357
79z" fill="#3762F6"/>
<path d="M4710 955 l0 -395 70 0 70 0 0 273 0 272 116 -215 c63 -118 122 -221
131 -227 26 -20 80 -16 100 7 10 10 68 113 128 227 l110 208 3 -272 2 -273 65
0 65 0 0 395 0 395 -74 0 c-47 0 -77 -5 -84 -12 -20 -26 -262 -486 -262 -499
0 -8 -62 103 -139 246 l-138 260 -82 3 -81 3 0 -396z" />
<path d="M3085 1133 c-42 -9 -101 -36 -133 -59 -28 -22 -31 -28 -21 -47 20
-38 52 -67 75 -67 12 0 41 9 65 20 55 25 111 26 132 3 8 -10 18 -34 22 -54 l7
-36 -81 -6 c-61 -4 -97 -13 -146 -35 -80 -38 -105 -74 -105 -150 0 -102 57
-152 172 -152 62 0 137 25 152 49 12 18 26 13 36 -14 9 -23 14 -25 75 -25 l65
0 0 198 c0 108 -5 214 -11 235 -13 49 -63 105 -114 128 -38 18 -138 24 -190
12z" fill="#3762F6"/>
<path d="M3606 1126 c-87 -33 -126 -87 -126 -176 0 -95 30 -124 194 -187 65
-25 79 -47 47 -74 -30 -24 -67 -24 -116 1 -61 31 -88 27 -119 -20 -14 -22 -26
-44 -26 -50 0 -5 24 -22 53 -37 62 -32 190 -43 253 -23 93 30 151 111 141 198
-8 77 -47 110 -192 164 -64 25 -82 51 -49 75 24 17 63 16 107 -2 57 -24 79
-19 106 22 29 45 22 59 -43 92 -60 30 -172 38 -230 17z" fill="#3762F6"/>
<path d="M4086 1126 c-89 -33 -126 -85 -126 -176 0 -78 25 -114 103 -150 34
-17 69 -30 77 -30 24 0 80 -38 80 -54 0 -20 -39 -46 -70 -46 -14 0 -43 9 -65
20 -62 32 -90 27 -120 -20 -14 -22 -25 -44 -25 -50 0 -5 24 -22 53 -36 62 -33
181 -44 251 -24 56 16 111 61 127 105 l13 35 68 0 68 0 0 75 0 75 -81 0 c-69
0 -91 5 -143 29 -33 15 -83 37 -111 47 -41 16 -50 24 -50 44 0 38 41 48 108
27 76 -24 89 -22 116 20 29 45 22 59 -43 92 -60 30 -172 38 -230 17z" fill="#3762F6"/>
<path d="M5826 1114 c-48 -17 -106 -60 -106 -78 0 -22 40 -66 60 -66 10 0 42
11 72 25 59 27 85 30 121 14 30 -13 47 -48 47 -93 l0 -33 -80 -6 c-60 -4 -96
-13 -145 -35 -76 -36 -105 -75 -105 -140 0 -106 63 -157 186 -150 62 3 79 8
118 35 l45 32 10 -30 c9 -27 14 -29 60 -29 l51 0 0 210 c0 260 -10 294 -102
341 -46 23 -173 25 -232 3z m194 -368 c0 -38 -4 -48 -30 -66 -86 -61 -202 -11
-147 63 17 24 82 46 135 47 l42 0 0 -44z"/>
<path d="M6474 1100 l-51 -29 -11 25 c-10 21 -18 24 -67 24 l-55 0 0 -280 0
-280 70 0 70 0 0 199 0 200 35 26 c19 15 52 29 74 32 35 5 44 2 71 -25 l30
-30 0 -201 0 -201 70 0 70 0 0 217 c0 200 -2 220 -21 260 -30 62 -86 93 -170
93 -52 0 -73 -5 -115 -30z"/>
<path d="M7016 1114 c-48 -17 -106 -60 -106 -78 0 -22 40 -66 60 -66 9 0 43
12 75 26 98 45 165 17 165 -71 l0 -42 -81 -6 c-94 -6 -195 -49 -225 -95 -27
-41 -30 -120 -5 -160 33 -51 76 -72 151 -72 64 0 139 24 154 49 12 18 26 13
36 -14 9 -23 15 -25 66 -25 l56 0 -4 208 c-5 256 -18 296 -110 343 -46 23
-173 25 -232 3z m194 -368 c0 -38 -4 -48 -30 -66 -42 -30 -103 -37 -135 -16
-27 18 -33 52 -12 79 17 23 83 45 135 46 l42 1 0 -44z"/>
<path d="M7578 1120 c-128 -40 -171 -210 -76 -298 l25 -23 -28 -30 c-33 -35
-39 -90 -14 -126 14 -20 13 -23 -14 -42 -62 -44 -62 -134 0 -186 74 -62 263
-74 364 -22 82 41 115 89 115 167 0 95 -49 128 -209 140 -119 8 -157 21 -142
47 7 13 26 17 82 18 146 3 236 89 216 209 -5 31 -3 33 31 42 34 8 37 12 40 51
l3 41 -103 6 c-219 14 -264 15 -290 6z m174 -120 c46 -57 3 -140 -73 -140 -86
0 -127 94 -64 147 24 21 36 24 74 20 30 -3 51 -12 63 -27z m51 -438 c47 -47
-17 -95 -126 -95 -105 0 -155 47 -105 100 22 24 26 25 117 20 75 -4 98 -9 114
-25z"/>
<path d="M8155 1106 c-57 -26 -99 -70 -128 -135 -16 -36 -18 -60 -15 -140 5
-105 22 -154 77 -208 54 -54 95 -68 206 -68 93 0 104 2 154 31 77 44 83 56 43
96 -30 31 -33 32 -64 19 -88 -35 -116 -42 -151 -38 -53 7 -85 32 -108 80 -36
80 -42 77 165 77 l184 0 5 30 c15 72 -29 191 -85 233 -73 54 -196 64 -283 23z
m169 -90 c39 -16 66 -51 66 -83 0 -23 -2 -23 -120 -23 l-120 0 11 27 c14 38
38 63 74 79 38 17 49 17 89 0z"/>
<path d="M8834 1111 c-18 -11 -40 -31 -50 -44 l-19 -25 -10 37 c-10 35 -11 36
-68 39 l-57 3 0 -281 0 -280 70 0 70 0 0 170 c0 185 6 212 54 244 16 10 46 16
85 16 66 0 64 -2 76 79 9 53 0 61 -70 61 -32 0 -61 -7 -81 -19z"/>
</g>
</svg>
