<svg xmlns="http://www.w3.org/2000/svg" width="13.508" height="15.621" viewBox="0 0 13.508 15.621">
  <g id="Groupe_354" data-name="Groupe 354" transform="translate(-121.207 -1189.298)">
    <path id="Tracé_379" data-name="Tracé 379"
      d="M131.076,1195.794a4,4,0,1,0-6.233,0,6.743,6.743,0,0,0-3.636,5.993c0,.734.4,1.757,2.307,2.458a13.349,13.349,0,0,0,4.447.676c3.362,0,6.754-.969,6.754-3.134A6.708,6.708,0,0,0,131.076,1195.794Zm-3.115-5.347a2.848,2.848,0,1,1-2.848,2.848A2.851,2.851,0,0,1,127.961,1190.448Zm.149,6.846.247,3.659-.377.4-.329-.384.248-3.676Zm-.149,6.476c-3.143,0-5.6-.872-5.6-1.984a5.6,5.6,0,0,1,3.4-5.155,3.985,3.985,0,0,0,1,.478l-.287,4.252,1.468,1.713,1.6-1.7-.29-4.3a4.012,4.012,0,0,0,.912-.446,5.57,5.57,0,0,1,3.406,5.153C133.566,1202.9,131.1,1203.769,127.961,1203.769Z"
     />
    <path id="Tracé_380" data-name="Tracé 380"
      d="M136.687,1206.845a.575.575,0,0,0,.575.575h1.285a.575.575,0,1,0,0-1.15h-1.285A.575.575,0,0,0,136.687,1206.845Z"
      transform="translate(-6.581 -7.216)" />
  </g>
</svg>