<svg xmlns="http://www.w3.org/2000/svg" width="18" height="11.397" viewBox="0 0 18 11.397">
  <g id="Groupe_274" data-name="Groupe 274" transform="translate(-19 -297)">
    <path id="Tracé_54" data-name="Tracé 54" d="M385.422,126.216a3.94,3.94,0,0,1-6.752,0,4.648,4.648,0,0,0-1.67,3.572v1.838h10.091v-1.838A4.648,4.648,0,0,0,385.422,126.216Z" transform="translate(-354.056 176.771)" />
    <circle id="Ellipse_1" data-name="Ellipse 1" cx="3.522" cy="3.522" r="3.522" transform="translate(24.467 297)" />
    <path id="Tracé_55" data-name="Tracé 55" d="M369.879,109.545c.067,0,.132-.006.2-.01a5.475,5.475,0,0,1,.6-.586h0a4.283,4.283,0,0,1,.829-4.9,2.99,2.99,0,1,0-1.626,5.5Z" transform="translate(-346.596 193.486)" />
    <path id="Tracé_56" data-name="Tracé 56" d="M363.371,122.958a3.947,3.947,0,0,0-1.417,3.033v1.56h3.129v-.117a5.428,5.428,0,0,1,.821-2.874A3.349,3.349,0,0,1,363.371,122.958Z" transform="translate(-342.954 179.175)" />
    <path id="Tracé_57" data-name="Tracé 57" d="M408.908,108.947h0a5.472,5.472,0,0,1,.6.586c.066,0,.131.01.2.01a2.99,2.99,0,1,0-1.626-5.5,4.283,4.283,0,0,1,.829,4.9Z" transform="translate(-376.989 193.486)" />
    <path id="Tracé_58" data-name="Tracé 58" d="M418.089,122.958a3.349,3.349,0,0,1-2.533,1.6,5.428,5.428,0,0,1,.821,2.874v.117h3.129v-1.56A3.947,3.947,0,0,0,418.089,122.958Z" transform="translate(-382.507 179.175)" />
  </g>
</svg>
