<svg xmlns="http://www.w3.org/2000/svg" width="20.668" height="16" viewBox="0 0 20.668 16">
  <g id="Groupe_273" data-name="Groupe 273" transform="translate(-18 -248)">
    <path id="Tracé_47" data-name="Tracé 47" d="M245.411,133.059l-5.529-1.947v3.923c0,.893,2.863,1.616,6.394,1.616s6.394-.724,6.394-1.616v-3.929l-5.545,1.953A2.579,2.579,0,0,1,245.411,133.059Z" transform="translate(-217.934 123.557)" />
    <path id="Tracé_48" data-name="Tracé 48" d="M249.126,124.889v-6.737l.5-.177a.574.574,0,0,0,.012-1.079l-9.054-3.4a2.582,2.582,0,0,0-1.816,0l-9.054,3.4a.574.574,0,0,0,.011,1.079l9.094,3.2a2.578,2.578,0,0,0,1.713,0L248,118.548v6.341a1.309,1.309,0,0,0-.749,1.18v1.945a1.312,1.312,0,0,0,2.623,0v-1.945A1.308,1.308,0,0,0,249.126,124.889Z" transform="translate(-211.346 134.674)" />
  </g>
</svg>