<svg xmlns="http://www.w3.org/2000/svg" width="21.308" height="13.897" viewBox="0 0 21.308 13.897">
  <path id="Tracé_372" data-name="Tracé 372"
    d="M249.191,1249.1l-8.218-4.526a.9.9,0,0,0-.777-.049l-11.288,4.585a.9.9,0,0,0-.452,1.259v4.427a.692.692,0,0,0,1.385,0v-3.519l3.054,1.625v3.1a1.544,1.544,0,0,0,1.009,1.445,14.817,14.817,0,0,0,10.195,0,1.544,1.544,0,0,0,1.009-1.445v-3.722l3.978-1.562a.9.9,0,0,0,.105-1.622ZM243.723,1256a.154.154,0,0,1-.1.146,13.434,13.434,0,0,1-9.24,0,.154.154,0,0,1-.1-.146v-2.367l2.764,1.471a.9.9,0,0,0,.751.044l5.928-2.327Zm-6.225-2.223L230.392,1250l10.109-4.106,7.111,3.917Z"
    transform="translate(-228.347 -1244.455)"  />
</svg>