<svg xmlns="http://www.w3.org/2000/svg" width="35" height="22.826" viewBox="0 0 35 22.826">
  <path id="Tracé_372" data-name="Tracé 372" d="M262.584,1252.078l-13.5-7.434a1.474,1.474,0,0,0-1.276-.081l-18.541,7.532a1.473,1.473,0,0,0-.742,2.068v7.271a1.137,1.137,0,0,0,2.275,0v-5.78l5.017,2.669v5.1a2.536,2.536,0,0,0,1.657,2.374,24.337,24.337,0,0,0,16.746,0,2.536,2.536,0,0,0,1.657-2.374v-6.114l6.534-2.566a1.474,1.474,0,0,0,.173-2.664Zm-8.982,11.344a.254.254,0,0,1-.166.239,22.068,22.068,0,0,1-15.178,0,.254.254,0,0,1-.166-.239v-3.887l4.54,2.417a1.471,1.471,0,0,0,1.233.072l9.737-3.823Zm-10.225-3.651-11.671-6.212,16.6-6.745,11.681,6.434Z" transform="translate(-228.347 -1244.455)" fill="#3762f6"/>
</svg>
