<svg xmlns="http://www.w3.org/2000/svg" width="35" height="30.789" viewBox="0 0 35 30.789">
  <path id="Tracé_385" data-name="Tracé 385" d="M320.12,1162.609a8.359,8.359,0,1,0-13.3,0,17.524,17.524,0,0,0-10.849,16.178,1.207,1.207,0,1,0,2.414,0,15.113,15.113,0,0,1,10.056-14.228,1.161,1.161,0,0,0,.247-.148,8.317,8.317,0,0,0,9.495.053,15.147,15.147,0,0,1,10.375,14.323,1.207,1.207,0,1,0,2.414,0A17.579,17.579,0,0,0,320.12,1162.609Zm-12.6-5.045a5.946,5.946,0,1,1,5.946,5.946A5.953,5.953,0,0,1,307.525,1157.564Z" transform="translate(-295.971 -1149.204)" fill="#3762f6"/>
</svg>
