<svg xmlns="http://www.w3.org/2000/svg" width="15.291" height="18.268" viewBox="0 0 15.291 18.268">
  <g id="Groupe_353" data-name="Groupe 353" transform="translate(-230.529 -1339)">
    <path id="Tracé_377" data-name="Tracé 377"
      d="M238.174,1339c-.172,0-.34.018-.51.031h-.015l-.064.006h-.008a6.4,6.4,0,0,0-.68.1c-.02,0-.04.006-.06.011a6.43,6.43,0,0,0-.651.175l-.059.018a6.809,6.809,0,0,0-.639.251l-.037.016q-.324.148-.634.331l-.007,0a8.745,8.745,0,0,0-3.735,4.817l0,.009c-.085.254-.162.514-.228.78-.01.042-.018.086-.028.129-.053.229-.1.459-.143.7-.018.111-.028.224-.043.336-.023.175-.049.347-.064.525-.025.3-.038.6-.038.9s.013.6.038.9c.015.176.042.349.064.522.015.113.025.228.044.34.038.234.089.463.142.69.01.045.018.091.029.135.066.263.142.52.226.772l.005.016a8.74,8.74,0,0,0,3.736,4.817h0c.209.122.422.234.64.334l.028.012a6.768,6.768,0,0,0,.649.255l.044.014a6.655,6.655,0,0,0,.668.179l.038.007a6.494,6.494,0,0,0,.7.1h0l.064.005h.012c.171.014.34.031.513.031,4.216,0,7.646-4.1,7.646-9.134S242.39,1339,238.174,1339Zm-.535,16.93a6.694,6.694,0,0,1-5.356-4.906c-.007-.02-.012-.04-.018-.061-.064-.2-.122-.406-.172-.615-.013-.053-.022-.107-.034-.16-.04-.18-.078-.362-.108-.547-.017-.105-.027-.214-.04-.321-.018-.139-.038-.276-.049-.418-.02-.253-.031-.509-.031-.769s.011-.516.031-.769c.012-.141.032-.278.049-.417.013-.107.023-.216.04-.322.03-.185.068-.366.108-.547.012-.053.021-.107.034-.16.05-.209.109-.413.172-.614.007-.02.012-.041.018-.061a6.693,6.693,0,0,1,5.356-4.906c2.758.34,4.909,3.747,4.909,7.8S240.4,1355.589,237.639,1355.93Zm4.55-1.738a11.887,11.887,0,0,0,0-12.116,9.045,9.045,0,0,1,0,12.116Z"
      transform="translate(0 0)" />
    <path id="Tracé_378" data-name="Tracé 378"
      d="M239.889,1349.987c-.882-.373-1.235-.638-1.235-1.2a1.078,1.078,0,0,1,1.046-1.062,2.371,2.371,0,0,1,1.391.23l.3-.839a2.667,2.667,0,0,0-1.469-.185v-1.109l-.637.137v1.121a1.982,1.982,0,0,0-1.406,1.9c0,.9.563,1.373,1.547,1.812.776.357,1.207.771,1.207,1.42a1.016,1.016,0,0,1-1.268,1,2.587,2.587,0,0,1-1.355-.62l-.209.669a2.855,2.855,0,0,0,1.415.684v1.117l.644.139v-1.186a1.742,1.742,0,0,0,1.8-1.809C241.658,1351.1,241.034,1350.463,239.889,1349.987Z"
      transform="translate(-2.539 -2.384)" />
  </g>
</svg>