<svg xmlns="http://www.w3.org/2000/svg" width="16" height="16" viewBox="0 0 16 16">
  <g id="Groupe_275" data-name="Groupe 275" transform="translate(-21 -345)">
    <circle id="Ellipse_2" data-name="Ellipse 2" cx="0.82" cy="0.82" r="0.82" transform="translate(31.678 352.18)" />
    <path id="Tracé_63" data-name="Tracé 63" d="M16,2.623A2.623,2.623,0,0,0,13.377,0H2.623A2.624,2.624,0,0,0,0,2.623V13.377A2.622,2.622,0,0,0,2.623,16H13.377A2.622,2.622,0,0,0,16,13.377V10.2H10.636A1.266,1.266,0,0,1,9.37,8.935V7.065A1.266,1.266,0,0,1,10.636,5.8H16ZM2.644,11.515h4.38a.471.471,0,1,1,0,.941H2.644a.471.471,0,1,1,0-.941Zm6.935,1.931a.471.471,0,0,1,0,.941H2.644a.471.471,0,0,1,0-.941Z" transform="translate(21 345)" />
  </g>
</svg>
